<?xml version="1.0" encoding="UTF-8" standalone="no"?>
<!-- Created with Inkscape (http://www.inkscape.org/) -->

<svg
   xmlns:dc="http://purl.org/dc/elements/1.1/"
   xmlns:cc="http://creativecommons.org/ns#"
   xmlns:rdf="http://www.w3.org/1999/02/22-rdf-syntax-ns#"
   xmlns:svg="http://www.w3.org/2000/svg"
   xmlns="http://www.w3.org/2000/svg"
   xmlns:sodipodi="http://sodipodi.sourceforge.net/DTD/sodipodi-0.dtd"
   xmlns:inkscape="http://www.inkscape.org/namespaces/inkscape"
   width="540"
   height="140"
   id="svg4537"
   version="1.1"
   inkscape:version="0.48.4 r9939"
   sodipodi:docname="header.svg">
  <defs
     id="defs4539" />
  <sodipodi:namedview
     id="base"
     pagecolor="#ffffff"
     bordercolor="#666666"
     borderopacity="1.0"
     inkscape:pageopacity="0.0"
     inkscape:pageshadow="2"
     inkscape:zoom="1.5494505"
     inkscape:cx="195.18702"
     inkscape:cy="164.52476"
     inkscape:current-layer="layer1"
     inkscape:document-units="px"
     showgrid="false"
     inkscape:window-width="1600"
     inkscape:window-height="875"
     inkscape:window-x="0"
     inkscape:window-y="0"
     inkscape:window-maximized="1"
     showguides="true"
     inkscape:guide-bbox="true" />
  <metadata
     id="metadata4542">
    <rdf:RDF>
      <cc:Work
         rdf:about="">
        <dc:format>image/svg+xml</dc:format>
        <dc:type
           rdf:resource="http://purl.org/dc/dcmitype/StillImage" />
        <dc:title></dc:title>
      </cc:Work>
    </rdf:RDF>
  </metadata>
  <g
     id="layer1"
     inkscape:label="Layer 1"
     inkscape:groupmode="layer"
     transform="translate(0,-340)">
    <g
       id="g3093">
      <g
         id="g3040">
        <g
           id="g4652"
           transform="matrix(1.8279401,0,0,1.8279401,-100.69355,60.203012)">
          <g
             id="text4630"
             style="font-size:40px;font-style:normal;font-variant:normal;font-weight:normal;font-stretch:normal;line-height:125%;letter-spacing:0px;word-spacing:0px;fill:#1a1a1a;fill-opacity:1;stroke:none;font-family:Brannboll Ny Personal Use Only;-inkscape-font-specification:Brannboll Ny Personal Use Only">
            <path
               id="path3048"
               style=""
               d="m 133.63896,183.79145 c -1.17335,-0.23997 -2.17335,-0.19997 -3,0.12 -0.82668,0.32002 -1.48001,0.80002 -1.96,1.44 -0.45334,0.64002 -0.72001,1.37336 -0.8,2.2 -0.08,0.82669 0.04,1.64002 0.36,2.44 0.34666,0.77335 0.89332,1.48002 1.64,2.12 0.74665,0.61335 1.71999,1.04002 2.92,1.28 l 2.04,-6 c 0.29332,-0.85331 0.61332,-1.74664 0.96,-2.68 0.34665,-0.93331 0.74665,-1.82664 1.2,-2.68 0.45331,-0.87997 0.97331,-1.67997 1.56,-2.4 0.61331,-0.74664 1.31998,-1.35997 2.12,-1.84 0.55998,-0.31997 1.15998,-0.5733 1.8,-0.76 0.63998,-0.18663 1.30664,-0.27997 2,-0.28 0.69331,3e-5 1.38664,0.1067 2.08,0.32 0.6933,0.21337 1.35997,0.56003 2,1.04 0.90664,0.69336 1.42664,1.61336 1.56,2.76 0.15997,1.12003 0.04,2.32003 -0.36,3.6 -0.40003,1.25336 -1.04003,2.49336 -1.92,3.72 -0.88003,1.22669 -1.88003,2.26669 -3,3.12 -1.22669,0.93335 -2.52002,1.72002 -3.88,2.36 -1.36002,0.61335 -2.81335,1.00001 -4.36,1.16 -0.45335,1.14668 -0.92002,2.20001 -1.4,3.16 -0.48002,0.93334 -0.98668,1.78668 -1.52,2.56 0.77332,0.77334 1.54665,1.46667 2.32,2.08 0.79998,0.61334 1.74665,0.92001 2.84,0.92 0.79998,1e-5 1.57331,-0.18666 2.32,-0.56 0.77331,-0.37333 1.49331,-0.86666 2.16,-1.48 0.69331,-0.63999 1.31997,-1.37332 1.88,-2.2 0.58664,-0.85332 1.07997,-1.74666 1.48,-2.68 0.15997,-0.34665 0.31997,-0.62665 0.48,-0.84 0.18664,-0.23999 0.3333,-0.35999 0.44,-0.36 0.10664,-0.0267 0.15997,0.0533 0.16,0.24 -3e-5,0.18668 -0.0934,0.50668 -0.28,0.96 -0.48003,1.06668 -1.02669,2.12001 -1.64,3.16 -0.61336,1.01334 -1.29336,1.93334 -2.04,2.76 -0.74669,0.80001 -1.56002,1.45334 -2.44,1.96 -0.88002,0.50667 -1.82669,0.76 -2.84,0.76 -1.33335,0 -2.46668,-0.32 -3.4,-0.96 -0.93335,-0.66666 -1.81335,-1.41333 -2.64,-2.24 -1.92001,2.08 -4.14668,3.12 -6.68,3.12 -1.25334,0 -2.28,-0.2 -3.08,-0.6 -0.77334,-0.42666 -1.33334,-0.93333 -1.68,-1.52 -0.34667,-0.61333 -0.49334,-1.27999 -0.44,-2 0.0533,-0.71999 0.30666,-1.37332 0.76,-1.96 0.45333,-0.61332 1.08,-1.11999 1.88,-1.52 0.79999,-0.42665 1.77333,-0.63999 2.92,-0.64 0.98666,1e-5 1.85332,0.13335 2.6,0.4 0.77332,0.24001 1.46666,0.54668 2.08,0.92 0.29332,-0.53332 0.55999,-1.10665 0.8,-1.72 0.26665,-0.61332 0.51999,-1.25332 0.76,-1.92 -1.81335,-0.34665 -3.26668,-0.93332 -4.36,-1.76 -1.09334,-0.82665 -1.89334,-1.77332 -2.4,-2.84 -0.48001,-1.09331 -0.68001,-2.21331 -0.6,-3.36 0.08,-1.17331 0.38666,-2.23998 0.92,-3.2 0.53333,-0.98664 1.26666,-1.79997 2.2,-2.44 0.93332,-0.63997 2.01332,-0.98664 3.24,-1.04 0.69332,-0.0266 1.26665,0.08 1.72,0.32 0.47999,0.21336 0.82665,0.50669 1.04,0.88 0.21332,0.37336 0.27998,0.80003 0.2,1.28 -0.08,0.45336 -0.32002,0.89336 -0.72,1.32 m 3.48,9.6 c 1.35998,-0.21332 2.62665,-0.59998 3.8,-1.16 1.17331,-0.58665 2.26664,-1.29332 3.28,-2.12 0.93331,-0.77331 1.74664,-1.69331 2.44,-2.76 0.6933,-1.06664 1.19997,-2.11998 1.52,-3.16 0.34664,-1.03997 0.47997,-1.98664 0.4,-2.84 -0.08,-0.87997 -0.4267,-1.50664 -1.04,-1.88 -0.69336,-0.42664 -1.48003,-0.5733 -2.36,-0.44 -0.88003,0.1067 -1.62669,0.4267 -2.24,0.96 -0.58669,0.5067 -1.12002,1.18669 -1.6,2.04 -0.45336,0.82669 -0.89336,1.78669 -1.32,2.88 -0.40002,1.06669 -0.81335,2.24002 -1.24,3.52 -0.40002,1.25335 -0.82669,2.56002 -1.28,3.92 l -0.36,1.04 m -11.64,9.56 c 0.95999,-0.08 1.79999,-0.39999 2.52,-0.96 0.74666,-0.55999 1.41332,-1.30666 2,-2.24 -0.53334,-0.42666 -1.12001,-0.77332 -1.76,-1.04 -0.64001,-0.29332 -1.36001,-0.43999 -2.16,-0.44 -1.04001,1e-5 -1.88001,0.26668 -2.52,0.8 -0.64,0.50668 -1.01334,1.06668 -1.12,1.68 -0.10667,0.58667 0.08,1.12001 0.56,1.6 0.48,0.48001 1.30666,0.68001 2.48,0.6" />
            <path
               id="path3050"
               style=""
               d="m 149.41083,205.19145 c -0.96,-0.0267 -1.69333,-0.46666 -2.2,-1.32 -0.50666,-0.85333 -0.8,-1.91999 -0.88,-3.2 -0.10666,-1.27999 0,-2.66666 0.32,-4.16 0.32,-1.51999 0.84,-2.93332 1.56,-4.24 0.74667,-1.33332 1.66667,-2.46665 2.76,-3.4 1.12,-0.95998 2.42666,-1.51998 3.92,-1.68 1.06666,-0.13331 2.03999,2e-5 2.92,0.4 0.90666,0.37335 1.50666,0.88002 1.8,1.52 0.15999,0.32002 0.25332,0.70669 0.28,1.16 0.0267,0.45335 -0.0533,0.88002 -0.24,1.28 -0.18668,0.40002 -0.50668,0.72002 -0.96,0.96 -0.45334,0.24002 -1.08001,0.30668 -1.88,0.2 0.0533,-0.63998 -0.10667,-1.15998 -0.48,-1.56 -0.37334,-0.39998 -0.93334,-0.57331 -1.68,-0.52 -0.77334,0.08 -1.50667,0.45335 -2.2,1.12 -0.66667,0.66668 -1.25333,1.48002 -1.76,2.44 -0.48,0.96001 -0.88,1.98668 -1.2,3.08 -0.32,1.09334 -0.52,2.10668 -0.6,3.04 -0.08,0.90667 -0.04,1.66667 0.12,2.28 0.16,0.61334 0.48,0.92001 0.96,0.92 0.56,1e-5 1.13333,-0.35999 1.72,-1.08 0.58666,-0.71999 1.13333,-1.57333 1.64,-2.56 0.50666,-1.01332 0.96,-2.03999 1.36,-3.08 0.39999,-1.06665 0.71999,-1.91999 0.96,-2.56 0.15999,-0.45332 0.47999,-0.73332 0.96,-0.84 0.47999,-0.10665 0.95999,-0.08 1.44,0.08 0.47999,0.16002 0.86666,0.42668 1.16,0.8 0.31999,0.37335 0.38666,0.81335 0.2,1.32 -0.26668,0.72001 -0.60001,1.53335 -1,2.44 -0.37334,0.90668 -0.69334,1.76001 -0.96,2.56 -0.24001,0.80001 -0.36001,1.48001 -0.36,2.04 0.0267,0.56001 0.31999,0.84001 0.88,0.84 0.53332,1e-5 1.09332,-0.29333 1.68,-0.88 0.58666,-0.61333 1.13332,-1.30666 1.64,-2.08 0.53332,-0.79999 0.98665,-1.57332 1.36,-2.32 0.37332,-0.74665 0.62665,-1.26665 0.76,-1.56 0.10665,-0.26665 0.23999,-0.47999 0.4,-0.64 0.15999,-0.15999 0.27999,-0.23999 0.36,-0.24 0.10665,1e-5 0.17332,0.08 0.2,0.24 0.0266,0.13335 -0.0267,0.34668 -0.16,0.64 -0.10668,0.21335 -0.26668,0.57335 -0.48,1.08 -0.18668,0.50668 -0.42668,1.08001 -0.72,1.72 -0.29335,0.64001 -0.64001,1.30668 -1.04,2 -0.40001,0.66667 -0.84001,1.28001 -1.32,1.84 -0.48001,0.56001 -1.00001,1.02667 -1.56,1.4 -0.56001,0.34667 -1.16001,0.52 -1.8,0.52 -0.66667,0 -1.20001,-0.16 -1.6,-0.48 -0.37334,-0.32 -0.65334,-0.71999 -0.84,-1.2 -0.18667,-0.47999 -0.29334,-0.99999 -0.32,-1.56 0,-0.58666 0.04,-1.14666 0.12,-1.68 -0.26667,0.69334 -0.57334,1.34667 -0.92,1.96 -0.34667,0.61334 -0.74667,1.14667 -1.2,1.6 -0.42667,0.42667 -0.90667,0.77334 -1.44,1.04 -0.50667,0.24 -1.06667,0.34667 -1.68,0.32" />
            <path
               id="path3052"
               style=""
               d="m 172.24771,188.19145 c 0.13332,0.34669 0.17332,0.73335 0.12,1.16 -0.0533,0.42669 -0.21334,0.82669 -0.48,1.2 -0.24001,0.37335 -0.57334,0.69335 -1,0.96 -0.42668,0.24002 -0.94668,0.34668 -1.56,0.32 -0.53334,-0.0266 -1.06667,-0.17332 -1.6,-0.44 -0.50667,-0.29332 -0.96001,-0.70665 -1.36,-1.24 -0.4,-0.53331 -0.72,-1.17331 -0.96,-1.92 -0.21334,-0.77331 -0.26667,-1.65331 -0.16,-2.64 0.16,-1.57331 0.65333,-2.94664 1.48,-4.12 0.82666,-1.1733 1.86666,-2.14664 3.12,-2.92 1.27999,-0.7733 2.70666,-1.35997 4.28,-1.76 1.57332,-0.39997 3.15998,-0.6133 4.76,-0.64 1.62665,-0.0266 3.21331,0.13337 4.76,0.48 1.54664,0.3467 2.93331,0.8667 4.16,1.56 1.22664,0.69336 2.22664,1.57336 3,2.64 0.7733,1.04003 1.18664,2.25336 1.24,3.64 0.0266,0.82669 -0.12003,1.60002 -0.44,2.32 -0.29336,0.72002 -0.72003,1.37335 -1.28,1.96 -0.53336,0.56002 -1.17336,1.04002 -1.92,1.44 -0.74669,0.40002 -1.54669,0.69335 -2.4,0.88 1.35997,0.24002 2.50664,0.77335 3.44,1.6 0.9333,0.80002 1.6133,1.73335 2.04,2.8 0.42664,1.04001 0.58664,2.14668 0.48,3.32 -0.08,1.17334 -0.4667,2.25334 -1.16,3.24 -0.6667,0.96001 -1.64003,1.76001 -2.92,2.4 -1.25336,0.64 -2.84002,0.96 -4.76,0.96 -0.85335,0 -1.64002,-0.0933 -2.36,-0.28 -0.72002,-0.18666 -1.36002,-0.42666 -1.92,-0.72 -0.53335,-0.31999 -0.98668,-0.67999 -1.36,-1.08 -0.37335,-0.39999 -0.62668,-0.81333 -0.76,-1.24 -0.10668,-0.31999 -0.14668,-0.59999 -0.12,-0.84 0.0266,-0.26666 0.0933,-0.47999 0.2,-0.64 0.10665,-0.18666 0.23998,-0.30666 0.4,-0.36 0.15998,-0.08 0.31998,-0.10666 0.48,-0.08 -2e-5,0.37334 0.0933,0.77334 0.28,1.2 0.21332,0.40001 0.51998,0.77334 0.92,1.12 0.39998,0.34667 0.91998,0.61334 1.56,0.8 0.63998,0.18667 1.39998,0.22667 2.28,0.12 1.11998,-0.13333 2.06664,-0.50666 2.84,-1.12 0.77331,-0.61333 1.35997,-1.33333 1.76,-2.16 0.42664,-0.82666 0.66664,-1.70666 0.72,-2.64 0.0533,-0.95999 -0.0934,-1.83999 -0.44,-2.64 -0.32003,-0.79998 -0.85336,-1.47998 -1.6,-2.04 -0.72002,-0.58665 -1.64002,-0.91998 -2.76,-1 -0.34669,-0.0266 -0.76002,2e-5 -1.24,0.08 -0.48002,0.0533 -0.98669,0.13335 -1.52,0.24 -0.53335,0.10668 -1.06668,0.24002 -1.6,0.4 -0.53335,0.13335 -1.01335,0.28002 -1.44,0.44 -0.96001,4.16001 -2.29335,7.32001 -4,9.48 -1.68001,2.13334 -3.77334,3.05334 -6.28,2.76 -1.12,-0.13333 -1.97334,-0.48 -2.56,-1.04 -0.56,-0.55999 -0.89334,-1.18666 -1,-1.88 -0.10667,-0.69333 0,-1.38666 0.32,-2.08 0.34666,-0.69332 0.86666,-1.23999 1.56,-1.64 0.32,-0.18666 0.69333,-0.25332 1.12,-0.2 0.45333,0.0267 0.73333,0.13334 0.84,0.32 -0.40001,0.08 -0.72001,0.32001 -0.96,0.72 -0.24,0.37334 -0.38667,0.77334 -0.44,1.2 -0.0267,0.40001 0.0533,0.77334 0.24,1.12 0.21333,0.34667 0.54666,0.53334 1,0.56 0.71999,0.0267 1.37333,-0.17333 1.96,-0.6 0.61333,-0.45333 1.15999,-1.09332 1.64,-1.92 0.50666,-0.82666 0.95999,-1.81332 1.36,-2.96 0.42666,-1.17332 0.81332,-2.47999 1.16,-3.92 0.53332,-2.13331 1.03999,-3.97331 1.52,-5.52 0.47999,-1.54664 0.98665,-2.82664 1.52,-3.84 0.53332,-1.01331 1.10665,-1.75997 1.72,-2.24 0.63998,-0.50664 1.38665,-0.75997 2.24,-0.76 0.63998,3e-5 1.15998,0.12003 1.56,0.36 0.39998,0.21336 0.67998,0.46669 0.84,0.76 -0.64002,0.13336 -1.18669,0.38669 -1.64,0.76 -0.42669,0.34669 -0.82669,0.89336 -1.2,1.64 -0.34668,0.74669 -0.69335,1.72002 -1.04,2.92 -0.34668,1.20002 -0.73335,2.72002 -1.16,4.56 0.79998,-0.13332 1.66665,-0.30665 2.6,-0.52 0.93331,-0.23998 1.74665,-0.46665 2.44,-0.68 1.67998,-0.55998 2.91998,-1.31998 3.72,-2.28 0.82664,-0.98664 1.26664,-1.99998 1.32,-3.04 0.0533,-0.98664 -0.17336,-1.87997 -0.68,-2.68 -0.50669,-0.82664 -1.20002,-1.51997 -2.08,-2.08 -0.88002,-0.58664 -1.89335,-1.0533 -3.04,-1.4 -1.14669,-0.34664 -2.33335,-0.55997 -3.56,-0.64 -1.20002,-0.10664 -2.40001,-0.0666 -3.6,0.12 -1.17335,0.1867 -2.24001,0.52003 -3.2,1 -0.96001,0.48003 -1.76001,1.12003 -2.4,1.92 -0.64001,0.80003 -1.01334,1.76003 -1.12,2.88 -0.0533,0.64002 0.0133,1.24002 0.2,1.8 0.21333,0.56002 0.50666,1.02669 0.88,1.4 0.39999,0.37335 0.85332,0.65335 1.36,0.84 0.53332,0.16002 1.07999,0.17335 1.64,0.04" />
          </g>
          <g
             id="text4634"
             style="font-size:40px;font-style:normal;font-variant:normal;font-weight:normal;font-stretch:normal;line-height:125%;letter-spacing:0px;word-spacing:0px;fill:#1a1a1a;fill-opacity:1;stroke:none;font-family:Brannboll Ny Personal Use Only;-inkscape-font-specification:Brannboll Ny Personal Use Only">
            <path
               id="path3055"
               style=""
               d="m 135.71674,183.58383 c -1.17335,-0.23998 -2.17334,-0.19998 -3,0.12 -0.82668,0.32002 -1.48001,0.80002 -1.96,1.44 -0.45334,0.64002 -0.72001,1.37335 -0.8,2.2 -0.08,0.82668 0.04,1.64001 0.36,2.44 0.34666,0.77335 0.89332,1.48001 1.64,2.12 0.74666,0.61334 1.71999,1.04001 2.92,1.28 l 2.04,-6 c 0.29332,-0.85332 0.61332,-1.74665 0.96,-2.68 0.34665,-0.93331 0.74665,-1.82665 1.2,-2.68 0.45332,-0.87998 0.97332,-1.67998 1.56,-2.4 0.61331,-0.74664 1.31998,-1.35998 2.12,-1.84 0.55998,-0.31997 1.15998,-0.57331 1.8,-0.76 0.63998,-0.18664 1.30664,-0.27997 2,-0.28 0.69331,3e-5 1.38664,0.10669 2.08,0.32 0.69331,0.21336 1.35997,0.56003 2,1.04 0.90664,0.69336 1.42664,1.61336 1.56,2.76 0.15997,1.12002 0.04,2.32002 -0.36,3.6 -0.40003,1.25335 -1.04003,2.49335 -1.92,3.72 -0.88003,1.22668 -1.88003,2.26668 -3,3.12 -1.22669,0.93334 -2.52002,1.72001 -3.88,2.36 -1.36002,0.61334 -2.81335,1.00001 -4.36,1.16 -0.45335,1.14667 -0.92002,2.20001 -1.4,3.16 -0.48001,0.93334 -0.98668,1.78667 -1.52,2.56 0.77332,0.77333 1.54665,1.46667 2.32,2.08 0.79998,0.61333 1.74665,0.92 2.84,0.92 0.79998,0 1.57331,-0.18667 2.32,-0.56 0.77331,-0.37333 1.49331,-0.86667 2.16,-1.48 0.69331,-0.64 1.31998,-1.37333 1.88,-2.2 0.58664,-0.85333 1.07997,-1.74666 1.48,-2.68 0.15997,-0.34666 0.31997,-0.62666 0.48,-0.84 0.18664,-0.23999 0.33331,-0.35999 0.44,-0.36 0.10664,-0.0267 0.15997,0.0533 0.16,0.24 -3e-5,0.18667 -0.0934,0.50667 -0.28,0.96 -0.48003,1.06667 -1.02669,2.12 -1.64,3.16 -0.61336,1.01334 -1.29336,1.93333 -2.04,2.76 -0.74669,0.8 -1.56002,1.45333 -2.44,1.96 -0.88002,0.50666 -1.82669,0.76 -2.84,0.76 -1.33335,0 -2.46668,-0.32 -3.4,-0.96 -0.93335,-0.66667 -1.81335,-1.41333 -2.64,-2.24 -1.92001,2.08 -4.14667,3.12 -6.68,3.12 -1.25334,0 -2.28,-0.2 -3.08,-0.6 -0.77333,-0.42667 -1.33333,-0.93333 -1.68,-1.52 -0.34667,-0.61333 -0.49333,-1.28 -0.44,-2 0.0533,-0.72 0.30667,-1.37333 0.76,-1.96 0.45333,-0.61333 1.08,-1.12 1.88,-1.52 0.8,-0.42666 1.77333,-0.63999 2.92,-0.64 0.98666,1e-5 1.85333,0.13334 2.6,0.4 0.77332,0.24001 1.46666,0.54667 2.08,0.92 0.29332,-0.53333 0.55999,-1.10666 0.8,-1.72 0.26666,-0.61333 0.51999,-1.25333 0.76,-1.92 -1.81334,-0.34666 -3.26668,-0.93332 -4.36,-1.76 -1.09334,-0.82666 -1.89334,-1.77332 -2.4,-2.84 -0.48,-1.09332 -0.68,-2.21332 -0.6,-3.36 0.08,-1.17332 0.38666,-2.23998 0.92,-3.2 0.53333,-0.98665 1.26666,-1.79998 2.2,-2.44 0.93332,-0.63998 2.01332,-0.98664 3.24,-1.04 0.69332,-0.0266 1.26665,0.08 1.72,0.32 0.47999,0.21336 0.82665,0.50669 1.04,0.88 0.21332,0.37335 0.27999,0.80002 0.2,1.28 -0.08,0.45335 -0.32001,0.89335 -0.72,1.32 m 3.48,9.6 c 1.35998,-0.21332 2.62665,-0.59999 3.8,-1.16 1.17331,-0.58666 2.26664,-1.29332 3.28,-2.12 0.93331,-0.77332 1.74664,-1.69332 2.44,-2.76 0.69331,-1.06665 1.19997,-2.11998 1.52,-3.16 0.34664,-1.03998 0.47997,-1.98665 0.4,-2.84 -0.08,-0.87998 -0.42669,-1.50664 -1.04,-1.88 -0.69336,-0.42664 -1.48003,-0.57331 -2.36,-0.44 -0.88002,0.10669 -1.62669,0.42669 -2.24,0.96 -0.58669,0.50669 -1.12002,1.18669 -1.6,2.04 -0.45335,0.82669 -0.89335,1.78669 -1.32,2.88 -0.40002,1.06668 -0.81335,2.24002 -1.24,3.52 -0.40002,1.25335 -0.82668,2.56001 -1.28,3.92 l -0.36,1.04 m -11.64,9.56 c 0.95999,-0.08 1.79999,-0.4 2.52,-0.96 0.74666,-0.56 1.41332,-1.30666 2,-2.24 -0.53334,-0.42666 -1.12001,-0.77333 -1.76,-1.04 -0.64001,-0.29333 -1.36001,-0.44 -2.16,-0.44 -1.04,0 -1.88,0.26667 -2.52,0.8 -0.64,0.50667 -1.01334,1.06667 -1.12,1.68 -0.10667,0.58667 0.08,1.12 0.56,1.6 0.48,0.48 1.30666,0.68 2.48,0.6" />
            <path
               id="path3057"
               style=""
               d="m 151.48861,204.98383 c -0.96,-0.0267 -1.69333,-0.46667 -2.2,-1.32 -0.50666,-0.85333 -0.79999,-1.92 -0.88,-3.2 -0.10666,-1.28 1e-5,-2.66666 0.32,-4.16 0.32,-1.51999 0.84,-2.93332 1.56,-4.24 0.74667,-1.33332 1.66667,-2.46665 2.76,-3.4 1.12,-0.95999 2.42666,-1.51998 3.92,-1.68 1.06666,-0.13332 2.03999,2e-5 2.92,0.4 0.90666,0.37335 1.50666,0.88001 1.8,1.52 0.15999,0.32001 0.25332,0.70668 0.28,1.16 0.0267,0.45335 -0.0533,0.88001 -0.24,1.28 -0.18667,0.40001 -0.50667,0.72001 -0.96,0.96 -0.45334,0.24001 -1.08001,0.30668 -1.88,0.2 0.0533,-0.63999 -0.10667,-1.15999 -0.48,-1.56 -0.37334,-0.39999 -0.93334,-0.57332 -1.68,-0.52 -0.77334,0.08 -1.50667,0.45335 -2.2,1.12 -0.66667,0.66668 -1.25333,1.48001 -1.76,2.44 -0.48,0.96001 -0.88,1.98667 -1.2,3.08 -0.32,1.09334 -0.52,2.10667 -0.6,3.04 -0.08,0.90667 -0.04,1.66667 0.12,2.28 0.16,0.61333 0.48,0.92 0.96,0.92 0.56,0 1.13333,-0.36 1.72,-1.08 0.58667,-0.72 1.13333,-1.57333 1.64,-2.56 0.50666,-1.01333 0.96,-2.04 1.36,-3.08 0.4,-1.06666 0.72,-1.91999 0.96,-2.56 0.16,-0.45332 0.48,-0.73332 0.96,-0.84 0.47999,-0.10666 0.95999,-0.08 1.44,0.08 0.47999,0.16001 0.86666,0.42668 1.16,0.8 0.31999,0.37334 0.38666,0.81334 0.2,1.32 -0.26667,0.72001 -0.60001,1.53334 -1,2.44 -0.37334,0.90667 -0.69334,1.76 -0.96,2.56 -0.24001,0.8 -0.36001,1.48 -0.36,2.04 0.0267,0.56 0.31999,0.84 0.88,0.84 0.53333,0 1.09333,-0.29333 1.68,-0.88 0.58666,-0.61333 1.13332,-1.30667 1.64,-2.08 0.53332,-0.8 0.98666,-1.57333 1.36,-2.32 0.37332,-0.74666 0.62665,-1.26666 0.76,-1.56 0.10665,-0.26666 0.23999,-0.47999 0.4,-0.64 0.15999,-0.15999 0.27999,-0.23999 0.36,-0.24 0.10665,10e-6 0.17332,0.08 0.2,0.24 0.0266,0.13334 -0.0267,0.34667 -0.16,0.64 -0.10668,0.21334 -0.26668,0.57334 -0.48,1.08 -0.18668,0.50667 -0.42668,1.08 -0.72,1.72 -0.29334,0.64 -0.64001,1.30667 -1.04,2 -0.40001,0.66667 -0.84001,1.28 -1.32,1.84 -0.48001,0.56 -1.00001,1.02667 -1.56,1.4 -0.56001,0.34666 -1.16001,0.52 -1.8,0.52 -0.66667,0 -1.2,-0.16 -1.6,-0.48 -0.37334,-0.32 -0.65334,-0.72 -0.84,-1.2 -0.18667,-0.48 -0.29334,-1 -0.32,-1.56 0,-0.58667 0.04,-1.14666 0.12,-1.68 -0.26667,0.69334 -0.57334,1.34667 -0.92,1.96 -0.34667,0.61333 -0.74667,1.14667 -1.2,1.6 -0.42667,0.42667 -0.90667,0.77333 -1.44,1.04 -0.50667,0.24 -1.06667,0.34666 -1.68,0.32" />
            <path
               id="path3059"
               style=""
               d="m 174.32549,187.98383 c 0.13332,0.34668 0.17332,0.73335 0.12,1.16 -0.0533,0.42668 -0.21334,0.82668 -0.48,1.2 -0.24001,0.37335 -0.57334,0.69334 -1,0.96 -0.42667,0.24001 -0.94667,0.34668 -1.56,0.32 -0.53334,-0.0267 -1.06667,-0.17332 -1.6,-0.44 -0.50667,-0.29332 -0.96,-0.70665 -1.36,-1.24 -0.4,-0.53332 -0.72,-1.17332 -0.96,-1.92 -0.21334,-0.77332 -0.26667,-1.65332 -0.16,-2.64 0.16,-1.57331 0.65333,-2.94665 1.48,-4.12 0.82666,-1.17331 1.86666,-2.14664 3.12,-2.92 1.27999,-0.77331 2.70666,-1.35997 4.28,-1.76 1.57332,-0.39997 3.15999,-0.61331 4.76,-0.64 1.62665,-0.0266 3.21331,0.13336 4.76,0.48 1.54664,0.34669 2.93331,0.86669 4.16,1.56 1.22664,0.69336 2.22664,1.57336 3,2.64 0.77331,1.04002 1.18664,2.25335 1.24,3.64 0.0266,0.82668 -0.12003,1.60002 -0.44,2.32 -0.29336,0.72002 -0.72003,1.37335 -1.28,1.96 -0.53336,0.56001 -1.17336,1.04001 -1.92,1.44 -0.74669,0.40001 -1.54669,0.69335 -2.4,0.88 1.35998,0.24001 2.50664,0.77334 3.44,1.6 0.93331,0.80001 1.61331,1.73334 2.04,2.8 0.42664,1.04001 0.58664,2.14667 0.48,3.32 -0.08,1.17334 -0.46669,2.25334 -1.16,3.24 -0.66669,0.96 -1.64003,1.76 -2.92,2.4 -1.25336,0.64 -2.84002,0.96 -4.76,0.96 -0.85335,0 -1.64002,-0.0933 -2.36,-0.28 -0.72002,-0.18667 -1.36002,-0.42667 -1.92,-0.72 -0.53335,-0.32 -0.98668,-0.68 -1.36,-1.08 -0.37335,-0.4 -0.62668,-0.81333 -0.76,-1.24 -0.10668,-0.32 -0.14668,-0.6 -0.12,-0.84 0.0267,-0.26666 0.0933,-0.48 0.2,-0.64 0.10665,-0.18666 0.23999,-0.30666 0.4,-0.36 0.15999,-0.08 0.31999,-0.10666 0.48,-0.08 -1e-5,0.37334 0.0933,0.77334 0.28,1.2 0.21332,0.4 0.51998,0.77333 0.92,1.12 0.39998,0.34667 0.91998,0.61333 1.56,0.8 0.63998,0.18667 1.39998,0.22667 2.28,0.12 1.11998,-0.13333 2.06665,-0.50667 2.84,-1.12 0.77331,-0.61333 1.35998,-1.33333 1.76,-2.16 0.42664,-0.82666 0.66664,-1.70666 0.72,-2.64 0.0533,-0.95999 -0.0934,-1.83999 -0.44,-2.64 -0.32002,-0.79999 -0.85336,-1.47999 -1.6,-2.04 -0.72002,-0.58666 -1.64002,-0.91999 -2.76,-1 -0.34669,-0.0267 -0.76002,1e-5 -1.24,0.08 -0.48002,0.0533 -0.98668,0.13334 -1.52,0.24 -0.53335,0.10668 -1.06668,0.24001 -1.6,0.4 -0.53335,0.13334 -1.01335,0.28001 -1.44,0.44 -0.96001,4.16001 -2.29335,7.32 -4,9.48 -1.68001,2.13333 -3.77334,3.05333 -6.28,2.76 -1.12,-0.13334 -1.97334,-0.48 -2.56,-1.04 -0.56,-0.56 -0.89333,-1.18667 -1,-1.88 -0.10667,-0.69333 0,-1.38666 0.32,-2.08 0.34667,-0.69333 0.86667,-1.24 1.56,-1.64 0.32,-0.18666 0.69333,-0.25333 1.12,-0.2 0.45333,0.0267 0.73333,0.13334 0.84,0.32 -0.4,0.08 -0.72,0.32 -0.96,0.72 -0.24,0.37334 -0.38667,0.77334 -0.44,1.2 -0.0267,0.4 0.0533,0.77333 0.24,1.12 0.21333,0.34667 0.54666,0.53333 1,0.56 0.72,0.0267 1.37333,-0.17333 1.96,-0.6 0.61333,-0.45333 1.15999,-1.09333 1.64,-1.92 0.50666,-0.82666 0.95999,-1.81333 1.36,-2.96 0.42666,-1.17333 0.81332,-2.47999 1.16,-3.92 0.53332,-2.13332 1.03999,-3.97332 1.52,-5.52 0.47999,-1.54665 0.98665,-2.82665 1.52,-3.84 0.53332,-1.01331 1.10665,-1.75998 1.72,-2.24 0.63998,-0.50664 1.38665,-0.75998 2.24,-0.76 0.63998,2e-5 1.15998,0.12002 1.56,0.36 0.39998,0.21336 0.67998,0.46669 0.84,0.76 -0.64002,0.13335 -1.18669,0.38669 -1.64,0.76 -0.42668,0.34669 -0.82668,0.89335 -1.2,1.64 -0.34668,0.74668 -0.69335,1.72002 -1.04,2.92 -0.34668,1.20001 -0.73335,2.72001 -1.16,4.56 0.79998,-0.13332 1.66665,-0.30666 2.6,-0.52 0.93332,-0.23999 1.74665,-0.46665 2.44,-0.68 1.67998,-0.55999 2.91998,-1.31999 3.72,-2.28 0.82664,-0.98665 1.26664,-1.99998 1.32,-3.04 0.0533,-0.98665 -0.17336,-1.87998 -0.68,-2.68 -0.50669,-0.82665 -1.20002,-1.51998 -2.08,-2.08 -0.88002,-0.58664 -1.89335,-1.05331 -3.04,-1.4 -1.14668,-0.34664 -2.33335,-0.55998 -3.56,-0.64 -1.20001,-0.10664 -2.40001,-0.0666 -3.6,0.12 -1.17334,0.18669 -2.24001,0.52002 -3.2,1 -0.96001,0.48002 -1.76001,1.12002 -2.4,1.92 -0.64001,0.80002 -1.01334,1.76002 -1.12,2.88 -0.0533,0.64002 0.0133,1.24002 0.2,1.8 0.21333,0.56002 0.50666,1.02668 0.88,1.4 0.39999,0.37335 0.85333,0.65335 1.36,0.84 0.53333,0.16001 1.07999,0.17335 1.64,0.04" />
          </g>
        </g>
      </g>
      <g
         transform="translate(0,103.80851)"
         id="g3089">
        <path
           style="fill:#ffcc00;fill-opacity:1"
           d="m 278.25209,251.01381 -13.90737,-7.13018 c -2.11324,18.69137 -10.79576,36.92478 -14.57817,56.98092 2.56815,17.48039 13.57512,29.51269 25.12177,41.19658 16.81661,17.3614 32.59664,19.33814 48.30088,20.36211 10.7209,-1.78878 34.17001,-10.59856 15.28602,-25.65497 -10.27264,-8.36794 -20.35101,-4.99662 -30.37802,-12.44482 -5.7155,-4.24556 -9.68266,-9.96478 -13.21643,-12.486 l -25.33874,-37.42532 z"
           id="rect4522"
           inkscape:connector-curvature="0"
           sodipodi:nodetypes="ccccccsccc" />
        <path
           style="fill:#1a1a1a"
           d="m 333.26277,360.61005 c 4.94616,-1.85016 6.76589,-3.13628 9.47479,-6.69627 3.56351,-4.68316 3.87588,-6.14744 2.34113,-10.97477 -0.6694,-2.10553 -1.12813,-2.68435 -4.21582,-5.31848 -3.98039,-3.39575 -8.54739,-5.8095 -15.40041,-8.1394 -10.08546,-3.42891 -13.91768,-4.93111 -16.53213,-6.48046 -3.49671,-2.07222 -9.25017,-7.46488 -13.75692,-12.89426 -1.95766,-2.35841 -4.15448,-4.98829 -4.88185,-5.84416 -2.34563,-2.76006 -3.84169,-5.02278 -5.86304,-8.86762 -2.03113,-3.86343 -4.75629,-8.13122 -10.06121,-15.75658 -2.07125,-2.97724 -3.07788,-4.81801 -3.19481,-5.84206 -0.22478,-1.96667 1.33356,-8.2462 2.65747,-10.71043 0.57643,-1.07286 1.01886,-2.21592 0.98317,-2.5401 -0.0357,-0.32419 0.58696,-1.12403 1.38368,-1.77739 0.79673,-0.65337 1.50866,-1.57744 1.58209,-2.05348 0.0735,-0.47608 0.56558,-1.72298 1.09373,-2.77093 1.54956,-3.0747 0.99021,-4.31079 -2.54997,-5.63515 -1.27244,-0.476 -2.89746,-1.25408 -3.61116,-1.72911 -0.7137,-0.47502 -1.5198,-0.84125 -1.79133,-0.81387 -0.27147,0.0278 -1.52227,-0.59866 -2.77943,-1.39128 -3.69413,-2.329 -6.26433,-1.43619 -4.69327,1.63032 0.50032,0.97652 0.48515,1.24024 -0.0956,1.6621 -0.37964,0.27575 -1.28908,1.16412 -2.02099,1.97411 l -1.33074,1.47272 0.47792,4.57721 0.47793,4.57723 -1.98287,6.38275 c -1.09057,3.51052 -2.19373,6.69504 -2.45146,7.07675 -0.25772,0.38173 -1.33198,2.60984 -2.38725,4.95137 -6.7746,15.03211 -6.64662,23.71947 0.57742,39.19631 2.8101,6.02041 10.24194,15.46164 17.35685,22.04978 2.67152,2.47377 5.29601,4.97214 5.83215,5.55199 1.77162,1.91605 12.00765,8.89223 15.93447,10.85987 11.31659,5.67061 19.75808,7.29705 31.05641,5.98379 3.79539,-0.44114 6.40111,-0.9736 8.37108,-1.7105 z m -8.80401,0.21559 c 0.50911,-0.15757 1.36032,-0.25116 1.89153,-0.20821 0.5312,0.043 0.11462,0.17183 -0.92572,0.28628 -1.04036,0.11443 -1.47496,0.0796 -0.96581,-0.078 z m 4.80108,-0.91068 c 0.1243,-0.15519 0.48523,-0.20987 0.80205,-0.12174 0.35005,0.0972 0.26145,0.20783 -0.22601,0.28191 -0.44114,0.067 -0.70032,-0.005 -0.57604,-0.15995 z m -13.57874,1.36602 c -0.0231,-0.20955 0.34727,-0.32371 0.82295,-0.25368 0.47569,0.07 0.87287,0.19981 0.88261,0.28845 0.009,0.0887 -0.36056,0.20277 -0.82294,0.25368 -0.46237,0.0511 -0.85953,-0.0789 -0.88262,-0.28845 z m 16.05454,-2.06392 c 0.1243,-0.15519 0.48521,-0.20991 0.80203,-0.12193 0.35007,0.0972 0.26144,0.20783 -0.22603,0.28191 -0.44111,0.0669 -0.70031,-0.005 -0.576,-0.15995 z m -18.41348,1.86316 c -0.17347,-0.22206 -0.0128,-0.3111 0.37733,-0.20871 0.75897,0.19928 0.92536,0.48589 0.32074,0.55243 -0.21756,0.0241 -0.53169,-0.13069 -0.69807,-0.34372 z m 7.19778,-1.80403 c -1.5863,0.43593 -6.66923,0.29349 -7.99149,-0.22396 -0.40739,-0.1594 -1.9117,-0.49212 -3.34281,-0.73927 -3.9929,-0.6896 -12.80162,-4.11245 -16.40861,-6.37599 -6.67953,-4.19165 -15.7146,-11.30848 -12.94487,-10.1965 1.20337,0.48311 1.54032,0.4291 1.07099,-0.17165 -0.20841,-0.26677 0.53221,0.042 1.64582,0.68629 1.1136,0.64425 2.04368,1.34347 2.06685,1.55385 0.0665,0.60558 4.62214,3.55324 7.2708,4.70464 1.3269,0.57681 2.85427,0.95066 3.39414,0.83076 0.58846,-0.1305 0.96422,-0.009 0.93822,0.30109 -0.10163,1.2166 10.35585,4.64985 16.29154,5.3486 5.171,0.60872 12.48088,-0.0768 17.99218,-1.68724 3.64741,-1.06581 4.88542,-1.28378 5.52984,-0.9736 0.63819,0.30721 1.02019,0.24982 1.65131,-0.24796 0.45153,-0.35617 0.92656,-0.56298 1.05558,-0.45954 0.46189,0.37026 -0.26288,1.19167 -1.97646,2.24 -0.95812,0.58614 -1.95526,1.3912 -2.21586,1.789 -0.42054,0.64195 -0.37471,0.65561 0.40757,0.12137 0.74555,-0.50916 0.85423,-0.49853 0.70518,0.0691 -0.18096,0.68933 -0.59152,0.87544 -3.79571,1.72082 -4.09993,1.08172 -7.32843,1.63629 -8.53148,1.46548 -0.6971,-0.0991 -1.96287,0.011 -2.81273,0.24473 z m 16.19903,-2.05234 c 0.11736,-0.24692 0.42094,-0.47177 0.67446,-0.49966 0.25351,-0.0278 1.02885,-0.59186 1.72301,-1.25327 1.44797,-1.37957 2.25718,-1.6831 1.16427,-0.43669 -0.60179,0.68636 -3.16727,2.52591 -3.64641,2.61467 -0.0709,0.0128 -0.0329,-0.17823 0.0847,-0.42505 z m 0.14057,-2.48592 c 0.11516,-0.14368 0.46856,-0.0519 0.78529,0.20404 0.45774,0.3698 0.41475,0.42338 -0.20939,0.26122 -0.43195,-0.11224 -0.69109,-0.32159 -0.5759,-0.46526 z m 1.41905,-0.41563 c 0.005,-0.13691 0.14678,-0.29316 0.31634,-0.34712 0.16964,-0.0539 0.52545,-0.42814 0.79086,-0.83155 0.37109,-0.56392 0.42778,-0.57993 0.24524,-0.0693 -0.52244,1.46203 -1.38502,2.25791 -1.35244,1.24792 z m -12.70135,-0.80893 c 0.1243,-0.15501 0.48517,-0.20989 0.80201,-0.12175 0.35006,0.0973 0.26144,0.20785 -0.22603,0.28189 -0.44112,0.067 -0.7003,-0.005 -0.57598,-0.15994 z m 17.47593,-2.51735 c -0.0254,-0.2312 0.15391,-0.44238 0.39887,-0.46932 0.24485,-0.0269 0.34907,0.153 0.23164,0.39994 -0.11736,0.24689 -0.29695,0.45809 -0.39887,0.46931 -0.102,0.011 -0.20619,-0.16871 -0.23164,-0.39993 z m -26.12931,2.24963 c -2.46393,-0.0642 -5.64808,-0.29401 -7.07588,-0.51077 -5.73376,-0.87042 -14.58526,-3.98556 -19.69469,-6.93118 -1.37411,-0.79219 -3.72082,-2.11025 -5.21489,-2.92901 -3.67182,-2.01222 -9.53534,-6.49702 -12.93267,-9.89172 -1.53529,-1.53408 -2.8915,-2.77825 -3.01378,-2.76478 -0.28044,0.0309 1.83944,2.31698 4.55956,4.91715 1.14969,1.09897 1.99973,2.18872 1.88893,2.42163 -0.11077,0.23294 0.0353,0.53599 0.32423,0.6735 0.32826,0.15611 0.39295,0.0801 0.17218,-0.20227 -0.19434,-0.24875 -0.1826,-0.47106 0.0259,-0.49405 0.20864,-0.0229 1.30857,0.86108 2.4443,1.96449 1.54534,1.50142 1.6946,1.73259 0.59313,0.91871 -0.80948,-0.59814 -1.45277,-0.91472 -1.42952,-0.7035 0.0232,0.21122 -1.64873,-0.95691 -3.71552,-2.59586 -3.76662,-2.98686 -8.01325,-7.3239 -8.31934,-8.49638 -0.0898,-0.34412 -0.45259,-0.76707 -0.80613,-0.93984 -0.35352,-0.17275 -0.51028,-0.33167 -0.34831,-0.35307 0.16195,-0.0219 -0.17165,-0.44312 -0.74131,-0.93713 -3.91898,-3.39844 -9.28171,-14.40794 -11.2667,-23.13023 -1.4107,-6.19871 0.11881,-16.02707 3.52024,-22.62052 1.62159,-3.14335 2.72319,-5.91587 5.75882,-14.49348 1.03395,-2.92167 1.91169,-5.37783 1.95046,-5.45815 0.0388,-0.0805 1.76192,-0.4059 3.82912,-0.72346 l 3.75854,-0.57744 0.30371,1.16341 c 0.1835,0.70296 -0.12704,2.16759 -0.56391,3.76755 -1.8625,6.82193 -1.28194,7.67649 -2.25543,10.03393 -0.89268,2.1617 0.49597,2.73576 8.73185,14.94804 0.95481,1.41581 2.58741,4.18258 3.62794,6.14836 2.78301,5.25761 5.26261,8.92787 7.78762,11.52696 1.23215,1.26831 3.32067,3.5932 4.64117,5.16645 4.17661,4.97596 10.74162,10.78525 15.35426,13.58671 3.98084,2.41774 6.25033,3.34957 17.5967,7.22492 3.63995,1.24322 8.82219,4.02948 9.51032,5.11328 0.77177,1.21556 1.4097,1.63991 0.95058,0.63235 -0.26077,-0.57238 -0.0203,-0.47396 0.81894,0.33528 0.90686,0.87432 1.04807,1.19245 0.59643,1.34367 -0.3254,0.10894 -0.45746,0.45853 -0.29335,0.7768 0.16416,0.31826 0.0889,0.60174 -0.16688,0.62989 -0.65644,0.0722 -0.45865,1.15158 0.32643,1.78092 0.56831,0.45562 0.5399,0.71303 -0.20534,1.86111 -0.47564,0.73276 -0.82878,1.72219 -0.78476,2.19871 0.0661,0.71819 -0.42636,1.05973 -2.87993,1.99644 -1.62801,0.62152 -3.3371,1.18285 -3.79796,1.24739 -0.46088,0.0645 -1.06547,0.30117 -1.3435,0.5259 -0.30645,0.24767 -0.97854,0.16799 -1.70663,-0.20219 -1.17942,-0.59971 -1.21396,-0.58889 -1.91285,0.59929 -0.85025,1.44551 -1.92042,1.62615 -8.60221,1.45219 z m 19.92188,-8.39845 c -0.0269,-0.24482 -0.2253,-0.30743 -0.44074,-0.13911 -0.21546,0.16836 -0.38257,0.38946 -0.37134,0.49142 0.011,0.10182 0.20955,0.16452 0.44075,0.13911 0.23118,-0.0254 0.39827,-0.24659 0.37133,-0.49142 z m -0.78263,-2.54772 c -0.33896,-1.32359 -5.77104,-3.56197 -11.72059,-4.82968 -11.06968,-2.35873 -17.95558,-6.30698 -29.4839,-16.90561 -5.90679,-5.43042 -6.78794,-6.38473 -10.69747,-11.58558 -4.43168,-5.89544 -7.81664,-11.46747 -12.9571,-21.32888 -4.72711,-9.06841 -5.32882,-11.08931 -4.82034,-16.1895 0.17183,-1.72421 0.1775,-3.39685 0.0128,-3.71699 -0.16506,-0.32014 0.25171,-1.91327 0.92614,-3.54024 1.47731,-3.56394 1.2847,-4.17493 -0.30618,-0.97115 -1.19527,2.40707 -3.00072,11.30365 -2.75221,13.56163 0.136,1.23487 1.4853,4.08901 6.4622,13.66849 2.89272,5.5679 7.36203,12.91387 12.18669,20.03063 3.84492,5.67156 2.33777,4.24171 18.92534,17.95474 6.27872,5.19062 12.37501,8.18414 22.73168,11.16219 2.17472,0.62531 5.42164,1.72694 7.21541,2.44803 3.78726,1.52248 4.61785,1.56943 4.27788,0.24192 z m -36.62446,-16.49604 c -0.87332,-0.72284 -1.4933,-1.32465 -1.3777,-1.33737 0.1157,-0.0128 0.92471,0.56827 1.79805,1.29109 0.87333,0.72284 1.49328,1.32467 1.37768,1.33739 -0.11552,0.0128 -0.9247,-0.56826 -1.79803,-1.29111 z m -25.17648,10.90641 c -0.009,-0.0872 -0.37703,-0.38188 -0.81656,-0.65463 -0.72423,-0.44945 -0.73746,-0.43296 -0.1413,0.17622 0.6262,0.63976 0.99587,0.82441 0.95779,0.47846 z m 52.30516,15.24986 c -0.37146,-0.18595 -0.48624,-0.3589 -0.25504,-0.38434 0.23118,-0.0254 0.72425,0.10583 1.0957,0.29179 0.37144,0.18596 0.48621,0.35888 0.25502,0.38432 -0.2312,0.0254 -0.72425,-0.10583 -1.09568,-0.29177 z m 12.41744,-3.13942 c -0.17054,-1.54912 0.11827,-1.4906 0.59741,0.1212 0.18378,0.61797 0.15739,1.14305 -0.0583,1.16678 -0.2159,0.0238 -0.45845,-0.55577 -0.53902,-1.28788 z m 0.94489,-3.0111 c -0.0254,-0.2312 0.15391,-0.4424 0.39889,-0.46934 0.24483,-0.0269 0.34906,0.153 0.23164,0.39991 -0.11754,0.24694 -0.29696,0.45816 -0.39889,0.46936 -0.102,0.011 -0.2062,-0.16872 -0.23164,-0.39993 z m -54.57814,3.70093 c -0.0805,0.10036 -0.87296,-0.45078 -1.7611,-1.22475 -0.88815,-0.77399 -1.08108,-1.03529 -0.4287,-0.5807 0.65235,0.45459 1.28103,0.70811 1.39708,0.56337 0.11607,-0.14477 1.00998,0.51895 1.98652,1.47484 0.97658,0.9559 1.95938,1.5944 2.18398,1.41894 0.25517,-0.19936 0.30301,-0.0974 0.1274,0.2715 -0.20981,0.44108 -0.67044,0.24933 -1.81995,-0.75754 -0.84648,-0.74146 -1.60489,-1.266 -1.68534,-1.16564 z m 56.49479,-5.61365 c -0.0254,-0.23119 0.0371,-0.42949 0.1391,-0.44072 0.102,-0.011 0.32309,0.15592 0.49141,0.37131 0.16835,0.2155 0.10565,0.41381 -0.13911,0.44077 -0.24483,0.0269 -0.46594,-0.1402 -0.49138,-0.37136 z m -3.83045,-1.59607 c 0.25942,-0.32358 1.1221,0.18097 1.178,0.68894 0.0308,0.27871 -0.21404,0.27336 -0.65,-0.0147 -0.38458,-0.25367 -0.62216,-0.55729 -0.528,-0.67475 z m 2.78353,-2.11758 c -1.0048,-0.82537 -1.66096,-1.51894 -1.45813,-1.54124 0.20282,-0.0223 -0.14349,-0.51071 -0.7694,-1.08529 -0.62601,-0.57455 -0.0549,-0.22235 1.26921,0.78274 1.324,1.00504 2.33329,1.98303 2.24282,2.17322 -0.0905,0.19024 0.19198,0.50402 0.62765,0.69731 0.43568,0.1933 0.59474,0.37902 0.35343,0.41267 -0.24128,0.034 -1.2608,-0.61407 -2.26558,-1.43941 z m -1.73565,1.62431 c -0.005,-0.0476 0.0737,-0.40323 0.17549,-0.79049 0.14312,-0.54504 0.32826,-0.60959 0.81942,-0.28562 0.90794,0.59889 0.84714,1.09931 -0.13764,1.13325 -0.46621,0.0164 -0.85193,-0.009 -0.85716,-0.0572 z m -59.65371,2.89908 c -0.0786,-0.51526 0.16781,-0.3953 1.36844,0.66608 l 1.14254,1.01001 -1.23154,-0.68115 c -0.67735,-0.37463 -1.25309,-0.82237 -1.27944,-0.99494 z m -1.87374,-1.44124 c -0.0223,-0.20288 0.18005,-0.39315 0.4498,-0.42286 0.26971,-0.0296 0.37963,0.0843 0.24425,0.25304 -0.13527,0.16891 0.0217,0.58233 0.34932,0.9188 0.5268,0.54127 0.50336,0.55459 -0.20367,0.11571 -0.43951,-0.27277 -0.81739,-0.66194 -0.8397,-0.86481 z m -1.48248,-1.38013 c -0.59622,-0.60913 -0.58298,-0.62562 0.1413,-0.17622 0.43951,0.27277 0.80696,0.56734 0.81658,0.65463 0.038,0.34595 -0.33163,0.16122 -0.95781,-0.47846 z m -1.02573,-1.58882 c -0.59624,-0.60915 -0.583,-0.62566 0.1413,-0.1762 0.43949,0.27278 0.80696,0.56735 0.81658,0.65465 0.038,0.34594 -0.33161,0.16122 -0.95781,-0.47846 z m -3.04718,-2.58759 c -0.0928,-0.35544 -0.0383,-0.54178 0.12083,-0.41411 0.15921,0.12777 0.36549,0.52297 0.45827,0.87841 0.0928,0.35542 0.0383,0.54178 -0.12083,0.41408 -0.15921,-0.12777 -0.36547,-0.52295 -0.45827,-0.87838 z m 54.88772,-6.20272 c -0.37145,-0.18595 -0.48621,-0.35889 -0.25503,-0.38431 0.23118,-0.0254 0.72424,0.10583 1.0957,0.29179 0.37146,0.18593 0.48621,0.35888 0.25502,0.3843 -0.2312,0.0254 -0.72425,-0.10583 -1.09569,-0.29178 z m -58.11825,3.4956 c 0.25371,-0.31651 1.53516,0.60663 2.17077,1.56376 0.4156,0.62583 0.19829,0.56281 -0.89833,-0.26055 -0.79559,-0.59734 -1.36821,-1.18377 -1.27244,-1.30321 z m -1.39827,-1.4372 c -0.29706,-0.42134 -0.66149,-0.84846 -0.80983,-0.94912 -0.14825,-0.10073 -0.90871,-1.06993 -1.68975,-2.15392 -1.76895,-2.45507 -1.142,-1.95613 1.4089,1.12124 1.06648,1.28654 2.14792,2.47434 2.40325,2.63955 0.28353,0.18345 0.22355,0.263 -0.15391,0.20436 -0.34009,-0.0528 -0.8614,-0.44075 -1.15849,-0.86211 z m 31.89047,-16.77956 c -0.59623,-0.60912 -0.583,-0.62565 0.1413,-0.17622 0.43948,0.27278 0.80696,0.56734 0.81655,0.65465 0.038,0.34596 -0.3316,0.16122 -0.9578,-0.47847 z M 289.0737,305.56623 c -0.59624,-0.60914 -0.58301,-0.62566 0.1413,-0.17622 0.4395,0.27277 0.80696,0.56736 0.81655,0.65464 0.038,0.34596 -0.3316,0.16123 -0.95778,-0.47846 z m -38.5836,-4.47464 c 0.0848,-0.30182 0.20621,-0.0761 0.26984,0.5021 0.0636,0.57796 -0.005,0.8249 -0.15409,0.54876 -0.14843,-0.27616 -0.20049,-0.74905 -0.11571,-1.05086 z m 32.04377,-5.31 c -0.0197,-0.24558 0.28253,-0.11004 0.67135,0.30147 0.38882,0.41139 0.72299,0.94896 0.74257,1.19455 0.0197,0.24559 -0.28251,0.11005 -0.67134,-0.30144 -0.38881,-0.4114 -0.72294,-0.94896 -0.74258,-1.19458 z m -1.54583,-3.55085 c 0.0972,-0.35008 0.20785,-0.26144 0.28191,0.22601 0.067,0.44109 -0.005,0.70031 -0.15995,0.57599 -0.15519,-0.12412 -0.2099,-0.48519 -0.12174,-0.802 z m -2.35203,-3.3839 c -0.75702,-1.27235 -0.77625,-1.3821 -0.12796,-0.73042 1.1587,1.16489 1.77475,2.14454 1.37617,2.18841 -0.19654,0.0215 -0.7582,-0.63444 -1.24815,-1.45799 z m -3.48677,-4.82779 c -1.61724,-2.20646 -2.61561,-4.11313 -2.00057,-3.82061 0.24615,0.11699 0.46486,0.36986 0.48597,0.56179 0.0212,0.19191 0.93753,1.56039 2.03645,3.04108 1.09895,1.48072 2.01865,2.87915 2.0438,3.10766 0.0537,0.48859 -0.76709,-0.436 -2.56565,-2.88992 z m -0.22747,-26.35185 c -0.0254,-0.23118 0.0371,-0.42953 0.1391,-0.44074 0.102,-0.011 0.32309,0.15593 0.4914,0.37135 0.16836,0.21545 0.10585,0.41379 -0.13909,0.44073 -0.24484,0.0269 -0.46599,-0.1402 -0.49145,-0.37134 z m -7.91042,-0.4632 c 0.0408,-0.50411 0.16215,-1.02634 0.26959,-1.16047 0.10748,-0.13417 -0.0724,-0.51917 -0.39992,-0.85564 -0.53021,-0.54475 -0.5056,-0.55593 0.22453,-0.102 0.45099,0.28031 0.74487,0.79575 0.65307,1.14542 -0.11406,0.43394 0.0261,0.53615 0.44152,0.32205 0.7787,-0.40151 0.79643,-0.16836 0.0574,0.75344 -0.81975,1.02255 -1.33363,0.98018 -1.24612,-0.10273 z m -3.86916,-2.25683 c -0.0483,-0.47643 0.0635,-1.17005 0.24926,-1.54151 0.28066,-0.56068 0.35714,-0.53298 0.45039,0.16306 0.13197,0.98491 1.01296,1.99419 1.93923,2.2216 0.48747,0.11955 0.39819,0.30108 -0.34766,0.70637 -1.14915,0.62448 -2.13676,-0.0435 -2.29122,-1.54961 z m 10.2163,-0.38033 c 0.33881,-0.52638 0.34133,-0.65496 0.007,-0.40119 -0.26988,0.20543 -0.5105,0.19341 -0.53473,-0.0266 -0.0241,-0.2201 -0.35,-0.48051 -0.72396,-0.57871 -0.44751,-0.11754 -0.57037,-0.011 -0.35942,0.3131 0.1762,0.27042 0.0128,0.19052 -0.36342,-0.17749 -0.37615,-0.36807 -0.854,-0.65052 -1.06189,-0.62764 -0.65391,0.0721 -1.79562,-1.66317 -1.95992,-2.97862 l -0.15757,-1.26256 1.83208,0.21776 c 1.03249,0.12284 1.85912,0.46358 1.89406,0.78104 0.0385,0.34998 0.33697,0.44145 0.78828,0.24156 0.50323,-0.2229 1.26345,0.14733 2.47565,1.20562 l 1.74941,1.52726 -1.04674,1.14762 c -0.57568,0.63119 -1.49481,1.20297 -2.04246,1.27066 -0.88295,0.10912 -0.93928,0.0353 -0.49718,-0.65167 z m 0.98497,-2.15391 c -0.038,-0.3468 -0.14386,-0.62232 -0.23462,-0.61233 -0.0908,0.009 -0.24282,0.3139 -0.33772,0.67534 -0.0949,0.3614 0.011,0.63696 0.23459,0.61232 0.22391,-0.0247 0.37591,-0.32855 0.33775,-0.67533 z m -3.15245,-1.26243 c -0.10346,-0.0549 -0.54713,-0.3166 -0.9858,-0.58172 -0.68271,-0.41266 -0.78675,-0.38387 -0.7225,0.1999 0.0462,0.41923 0.42593,0.64336 0.98581,0.58172 0.50089,-0.055 0.82603,-0.14513 0.72249,-0.1999 z m -6.91263,2.58297 c -0.0254,-0.2312 0.0371,-0.42951 0.13911,-0.44073 0.102,-0.011 0.3231,0.15592 0.49142,0.37135 0.16835,0.21543 0.10584,0.41378 -0.1391,0.44072 -0.24484,0.0269 -0.46596,-0.1402 -0.49141,-0.37134 z m -0.15994,-3.38585 c -0.16835,-0.21547 -0.10566,-0.4138 0.1391,-0.44076 0.24484,-0.0269 0.46599,0.1402 0.49143,0.37133 0.0252,0.2312 -0.0371,0.42953 -0.13911,0.44076 -0.102,0.011 -0.32308,-0.15591 -0.49144,-0.37133 z m 1.07774,-5.56713 c 0.11516,-0.14367 0.46856,-0.0519 0.78531,0.20406 0.45774,0.36979 0.4148,0.42338 -0.20941,0.26119 -0.4319,-0.11224 -0.69107,-0.32157 -0.5759,-0.46525 z"
           id="path4149"
           inkscape:connector-curvature="0"
           sodipodi:nodetypes="cssssssssscssscssscsssscccscssscsscccssccccccscssscccccccscccsssscsscssscccscsssccccsssccccsccccccccccccsscsscsssssscccssssssccsssscsccsssssssscccccssscscccsccssssscssssscsssssssscssssssssscscscscsssscsscscssccsccssssscsscsscccccsscccscscscsssccssssssssssccccccscsccsscccsscccscssscsscsscccccccccccccsccscsssssscsscsscccccccsccscccscscsccsscscsccsssssccsscssssscssscsccs" />
      </g>
      <g
         id="g3061">
        <g
           id="text4644"
           style="font-size:73.11759949px;font-style:normal;font-variant:normal;font-weight:normal;font-stretch:normal;line-height:125%;letter-spacing:0px;word-spacing:0px;fill:#1a1a1a;fill-opacity:1;stroke:none;font-family:Brannboll Ny Personal Use Only;-inkscape-font-specification:Brannboll Ny Personal Use Only">
          <path
             id="path3068"
             style=""
             d="m 261.22123,434.90119 c -1.75482,-0.0487 -3.09531,-0.85304 -4.02147,-2.41288 -0.92615,-1.55984 -1.46235,-3.50964 -1.60858,-5.84941 -0.19498,-2.33975 0,-4.87449 0.58494,-7.60423 0.58494,-2.77845 1.53546,-5.36194 2.85158,-7.75047 1.36486,-2.43722 3.04656,-4.50889 5.04512,-6.21499 2.04728,-1.75479 4.43579,-2.77844 7.16552,-3.07094 1.94979,-0.24369 3.72898,3e-5 5.33759,0.73118 1.65731,0.68246 2.75407,1.60861 3.29029,2.77846 0.29245,0.58497 0.46305,1.29178 0.51182,2.12041 0.0487,0.8287 -0.0975,1.60862 -0.4387,2.33977 -0.34124,0.7312 -0.92618,1.31614 -1.75483,1.75482 -0.82868,0.43873 -1.97419,0.56059 -3.43652,0.36559 0.0975,-1.16986 -0.195,-2.12039 -0.87741,-2.85159 -0.68245,-0.73115 -1.7061,-1.04799 -3.07094,-0.95053 -1.41362,0.14626 -2.75411,0.82869 -4.02147,2.0473 -1.21864,1.21865 -2.29103,2.70537 -3.21718,4.46017 -0.87741,1.75484 -1.60859,3.63152 -2.19352,5.63005 -0.58495,1.99856 -0.95054,3.85088 -1.09677,5.55694 -0.14624,1.65734 -0.0731,3.04657 0.21936,4.16771 0.29246,1.12114 0.8774,1.6817 1.75482,1.6817 1.02364,0 2.07165,-0.65805 3.14405,-1.97418 1.07239,-1.31611 2.07166,-2.87595 2.99783,-4.67952 0.92614,-1.8523 1.7548,-3.72899 2.48599,-5.63006 0.73117,-1.94978 1.31611,-3.50962 1.75483,-4.67952 0.29245,-0.82865 0.87739,-1.34047 1.75482,-1.53547 0.87739,-0.19496 1.7548,-0.14622 2.63223,0.14623 0.87739,0.29249 1.5842,0.77994 2.12041,1.46235 0.58492,0.68245 0.70678,1.48675 0.36559,2.41289 -0.48747,1.31613 -1.09679,2.80285 -1.82794,4.46017 -0.68245,1.65734 -1.26739,3.21718 -1.75482,4.67953 -0.43873,1.46235 -0.65808,2.70535 -0.65806,3.72899 0.0487,1.02365 0.58492,1.53548 1.60859,1.53547 0.97488,10e-6 1.99852,-0.53619 3.07094,-1.60858 1.07236,-1.12114 2.07164,-2.38851 2.99782,-3.80212 0.97487,-1.46234 1.80354,-2.87595 2.486,-4.24082 0.6824,-1.36485 1.14548,-2.31538 1.38923,-2.85159 0.19495,-0.48743 0.43868,-0.87739 0.73118,-1.16988 0.29244,-0.29245 0.51179,-0.43869 0.65806,-0.4387 0.19494,10e-6 0.31681,0.14625 0.36558,0.4387 0.0487,0.24374 -0.0488,0.6337 -0.29247,1.16988 -0.19501,0.38998 -0.48748,1.04804 -0.87741,1.97418 -0.34124,0.92617 -0.77995,1.97419 -1.31611,3.14405 -0.53623,1.1699 -1.16992,2.38852 -1.90106,3.65588 -0.73121,1.21864 -1.5355,2.33977 -2.41288,3.36341 -0.87744,1.02365 -1.82797,1.87669 -2.85159,2.55912 -1.02367,0.63369 -2.12043,0.95053 -3.29029,0.95053 -1.21865,0 -2.19355,-0.29247 -2.92471,-0.87741 -0.68244,-0.58494 -1.19427,-1.31612 -1.53547,-2.19353 -0.34123,-0.87741 -0.53621,-1.82794 -0.58494,-2.85159 -1e-5,-1.07238 0.0731,-2.09603 0.21936,-3.07094 -0.48747,1.26738 -1.04804,2.46164 -1.68171,3.58277 -0.6337,1.12114 -1.36487,2.09604 -2.19353,2.9247 -0.77993,0.77992 -1.65734,1.41361 -2.63223,1.90106 -0.92616,0.4387 -1.94981,0.63368 -3.07094,0.58494" />
          <path
             id="path3070"
             style=""
             d="m 297.99367,404.26491 c -0.38997,1.65737 -0.87742,3.55842 -1.46235,5.70318 -0.58495,2.09606 -1.21863,4.26521 -1.90106,6.50746 1.80356,-3.07091 3.70462,-5.82501 5.70318,-8.26228 1.60857,-1.94978 3.24153,-3.4365 4.89887,-4.46018 1.70606,-1.02361 3.2659,-1.60855 4.67953,-1.75482 1.41358,-0.1462 2.58346,0.12189 3.50965,0.80429 0.97487,0.63372 1.53544,1.65737 1.6817,3.07094 0.14621,1.16991 -0.0244,2.60789 -0.51182,4.31394 -0.48748,1.65736 -1.12117,3.41218 -1.90106,5.26447 -0.7312,1.80358 -1.51112,3.63152 -2.33976,5.48382 -0.82869,1.80358 -1.5355,3.46091 -2.12041,4.97199 -0.58497,1.46236 -0.95055,2.70536 -1.09677,3.729 -0.0975,0.97491 0.17059,1.55985 0.8043,1.75482 0.6824,0.19499 1.4867,10e-6 2.41288,-0.58494 0.92613,-0.58493 1.90103,-1.43797 2.9247,-2.55911 1.02362,-1.12113 2.02289,-2.46162 2.99782,-4.02147 1.02362,-1.55983 1.9254,-3.21716 2.70535,-4.972 0.38993,-0.92614 0.75552,-1.60857 1.09677,-2.04729 0.34118,-0.43869 0.60928,-0.65804 0.80429,-0.65806 0.19495,2e-5 0.26806,0.21937 0.21935,0.65806 -0.0488,0.43872 -0.26813,1.12115 -0.65805,2.04729 -0.39,0.97492 -1.02368,2.33978 -1.90106,4.09459 -0.87744,1.75483 -1.94983,3.50965 -3.21718,5.26447 -1.21865,1.70608 -2.63226,3.21717 -4.24082,4.53329 -1.55986,1.26737 -3.21719,1.90105 -4.97199,1.90105 -1.26739,0 -2.29104,-0.38996 -3.07094,-1.16988 -0.73119,-0.77992 -1.24302,-1.85231 -1.53547,-3.21717 -0.24374,-1.4136 -0.24374,-3.07093 0,-4.972 0.29245,-1.90104 0.80428,-3.99708 1.53547,-6.28811 0.29245,-0.82865 0.60929,-1.73043 0.95053,-2.70535 0.38994,-0.97489 0.75553,-1.90104 1.09676,-2.77847 0.3412,-0.92614 0.65804,-1.7548 0.95053,-2.486 0.29245,-0.73115 0.48743,-1.26735 0.58494,-1.60859 -0.92618,3e-5 -2.12043,0.58497 -3.58276,1.75482 -1.46237,1.16991 -2.99784,2.75412 -4.60641,4.75265 -1.6086,1.94982 -3.16844,4.19209 -4.67953,6.72682 -1.46236,2.53475 -2.70535,5.14261 -3.729,7.82358 l -0.36558,1.02365 c -0.5362,1.5111 -1.21863,2.43725 -2.0473,2.77847 -0.77992,0.34121 -1.46235,0.19498 -2.04729,-0.43871 -0.63368,-0.68243 -1.07239,-1.82794 -1.31612,-3.43653 -0.24372,-1.60858 -0.0244,-3.65587 0.65806,-6.14187 0.24373,-0.8774 0.65806,-2.04729 1.243,-3.50965 0.5362,-1.51108 1.16988,-3.19278 1.90106,-5.04511 0.77992,-1.8523 1.58421,-3.82647 2.41288,-5.92253 0.82866,-2.14476 1.60858,-4.33828 2.33976,-6.58058 0.34121,-0.97487 0.85303,-1.73042 1.53547,-2.26665 0.68242,-0.58491 1.34048,-0.87738 1.97418,-0.87741 0.63367,3e-5 1.1455,0.2925 1.53547,0.87741 0.38995,0.58497 0.43869,1.55988 0.14623,2.9247" />
          <path
             id="path3072"
             style=""
             d="m 324.05667,434.90119 c -1.75483,-0.0487 -3.09532,-0.85304 -4.02147,-2.41288 -0.92616,-1.55984 -1.46235,-3.50964 -1.60859,-5.84941 -0.19498,-2.33975 0,-4.87449 0.58494,-7.60423 0.58494,-2.77845 1.53547,-5.36194 2.85159,-7.75047 1.36485,-2.43722 3.04656,-4.50889 5.04511,-6.21499 2.04728,-1.75479 4.43579,-2.77844 7.16553,-3.07094 1.94978,-0.24369 3.72898,3e-5 5.33758,0.73118 1.65731,0.68246 2.75407,1.60861 3.29029,2.77846 0.29245,0.58497 0.46306,1.29178 0.51183,2.12041 0.0487,0.8287 -0.0975,1.60862 -0.43871,2.33977 -0.34124,0.7312 -0.92618,1.31614 -1.75482,1.75482 -0.82869,0.43873 -1.9742,0.56059 -3.43653,0.36559 0.0975,-1.16986 -0.195,-2.12039 -0.87741,-2.85159 -0.68245,-0.73115 -1.70609,-1.04799 -3.07094,-0.95053 -1.41362,0.14626 -2.75411,0.82869 -4.02147,2.0473 -1.21863,1.21865 -2.29102,2.70537 -3.21717,4.46017 -0.87742,1.75484 -1.60859,3.63152 -2.19353,5.63005 -0.58494,1.99856 -0.95053,3.85088 -1.09676,5.55694 -0.14624,1.65734 -0.0731,3.04657 0.21935,4.16771 0.29247,1.12114 0.87741,1.6817 1.75482,1.6817 1.02364,0 2.07166,-0.65805 3.14406,-1.97418 1.07238,-1.31611 2.07165,-2.87595 2.99782,-4.67952 0.92614,-1.8523 1.75481,-3.72899 2.486,-5.63006 0.73116,-1.94978 1.3161,-3.50962 1.75482,-4.67952 0.29245,-0.82865 0.87739,-1.34047 1.75482,-1.53547 0.8774,-0.19496 1.75481,-0.14622 2.63224,0.14623 0.87739,0.29249 1.58419,0.77994 2.12041,1.46235 0.58491,0.68245 0.70678,1.48675 0.36559,2.41289 -0.48748,1.31613 -1.09679,2.80285 -1.82794,4.46017 -0.68246,1.65734 -1.2674,3.21718 -1.75483,4.67953 -0.43872,1.46235 -0.65807,2.70535 -0.65806,3.72899 0.0487,1.02365 0.58493,1.53548 1.60859,1.53547 0.97488,10e-6 1.99853,-0.53619 3.07094,-1.60858 1.07237,-1.12114 2.07164,-2.38851 2.99782,-3.80212 0.97488,-1.46234 1.80354,-2.87595 2.486,-4.24082 0.6824,-1.36485 1.14548,-2.31538 1.38924,-2.85159 0.19494,-0.48743 0.43867,-0.87739 0.73117,-1.16988 0.29244,-0.29245 0.51179,-0.43869 0.65806,-0.4387 0.19495,10e-6 0.31681,0.14625 0.36559,0.4387 0.0487,0.24374 -0.0488,0.6337 -0.29247,1.16988 -0.19502,0.38998 -0.48749,1.04804 -0.87741,1.97418 -0.34125,0.92617 -0.77996,1.97419 -1.31612,3.14405 -0.53623,1.1699 -1.16991,2.38852 -1.90106,3.65588 -0.7312,1.21864 -1.53549,2.33977 -2.41288,3.36341 -0.87744,1.02365 -1.82796,1.87669 -2.85159,2.55912 -1.02366,0.63369 -2.12043,0.95053 -3.29029,0.95053 -1.21864,0 -2.19354,-0.29247 -2.9247,-0.87741 -0.68245,-0.58494 -1.19427,-1.31612 -1.53547,-2.19353 -0.34123,-0.87741 -0.53621,-1.82794 -0.58494,-2.85159 -2e-5,-1.07238 0.0731,-2.09603 0.21935,-3.07094 -0.48746,1.26738 -1.04803,2.46164 -1.6817,3.58277 -0.6337,1.12114 -1.36488,2.09604 -2.19353,2.9247 -0.77993,0.77992 -1.65734,1.41361 -2.63224,1.90106 -0.92616,0.4387 -1.9498,0.63368 -3.07093,0.58494" />
          <path
             id="path3074"
             style=""
             d="m 360.82911,404.26491 c -0.38997,1.65737 -0.87742,3.55842 -1.46235,5.70318 -0.58495,2.09606 -1.21864,4.26521 -1.90106,6.50746 1.80356,-3.07091 3.70461,-5.82501 5.70317,-8.26228 1.60857,-1.94978 3.24153,-3.4365 4.89888,-4.46018 1.70606,-1.02361 3.2659,-1.60855 4.67953,-1.75482 1.41358,-0.1462 2.58346,0.12189 3.50964,0.80429 0.97488,0.63372 1.53544,1.65737 1.68171,3.07094 0.1462,1.16991 -0.0244,2.60789 -0.51183,4.31394 -0.48747,1.65736 -1.12116,3.41218 -1.90105,5.26447 -0.73121,1.80358 -1.51113,3.63152 -2.33977,5.48382 -0.82869,1.80358 -1.53549,3.46091 -2.12041,4.97199 -0.58496,1.46236 -0.95055,2.70536 -1.09676,3.729 -0.0975,0.97491 0.17059,1.55985 0.80429,1.75482 0.68241,0.19499 1.4867,10e-6 2.41288,-0.58494 0.92613,-0.58493 1.90103,-1.43797 2.92471,-2.55911 1.02362,-1.12113 2.02289,-2.46162 2.99782,-4.02147 1.02361,-1.55983 1.9254,-3.21716 2.70535,-4.972 0.38993,-0.92614 0.75551,-1.60857 1.09676,-2.04729 0.34118,-0.43869 0.60928,-0.65804 0.8043,-0.65806 0.19494,2e-5 0.26806,0.21937 0.21935,0.65806 -0.0488,0.43872 -0.26813,1.12115 -0.65806,2.04729 -0.38999,0.97492 -1.02368,2.33978 -1.90106,4.09459 -0.87744,1.75483 -1.94983,3.50965 -3.21717,5.26447 -1.21865,1.70608 -2.63226,3.21717 -4.24082,4.53329 -1.55987,1.26737 -3.2172,1.90105 -4.972,1.90105 -1.26739,0 -2.29103,-0.38996 -3.07094,-1.16988 -0.73119,-0.77992 -1.24301,-1.85231 -1.53547,-3.21717 -0.24374,-1.4136 -0.24374,-3.07093 0,-4.972 0.29246,-1.90104 0.80428,-3.99708 1.53547,-6.28811 0.29246,-0.82865 0.6093,-1.73043 0.95053,-2.70535 0.38994,-0.97489 0.75553,-1.90104 1.09677,-2.77847 0.34119,-0.92614 0.65803,-1.7548 0.95052,-2.486 0.29245,-0.73115 0.48743,-1.26735 0.58494,-1.60859 -0.92617,3e-5 -2.12042,0.58497 -3.58276,1.75482 -1.46236,1.16991 -2.99783,2.75412 -4.60641,4.75265 -1.60859,1.94982 -3.16843,4.19209 -4.67952,6.72682 -1.46236,2.53475 -2.70536,5.14261 -3.729,7.82358 l -0.36559,1.02365 c -0.5362,1.5111 -1.21863,2.43725 -2.04729,2.77847 -0.77992,0.34121 -1.46235,0.19498 -2.04729,-0.43871 -0.63369,-0.68243 -1.07239,-1.82794 -1.31612,-3.43653 -0.24372,-1.60858 -0.0244,-3.65587 0.65806,-6.14187 0.24372,-0.8774 0.65806,-2.04729 1.243,-3.50965 0.53619,-1.51108 1.16988,-3.19278 1.90105,-5.04511 0.77992,-1.8523 1.58422,-3.82647 2.41289,-5.92253 0.82866,-2.14476 1.60858,-4.33828 2.33976,-6.58058 0.34121,-0.97487 0.85303,-1.73042 1.53547,-2.26665 0.68242,-0.58491 1.34048,-0.87738 1.97417,-0.87741 0.63368,3e-5 1.1455,0.2925 1.53547,0.87741 0.38995,0.58497 0.4387,1.55988 0.14624,2.9247" />
          <path
             id="path3076"
             style=""
             d="m 400.1995,421.15508 c -1.41362,0.82868 -2.80285,1.31613 -4.1677,1.46235 -1.36488,0.0975 -2.65662,10e-6 -3.87523,-0.29247 -1.16989,-0.3412 -2.24228,-0.80428 -3.21718,-1.38923 -0.97491,-0.63367 -1.75483,-1.29173 -2.33976,-1.97418 -0.0975,1.26739 -0.0487,2.48601 0.14623,3.65588 0.19498,1.1699 0.56057,2.21791 1.09677,3.14406 0.53619,0.92616 1.24299,1.68171 2.12041,2.26664 0.8774,0.58495 1.94979,0.95054 3.21717,1.09677 2.04728,0.19498 3.87522,0.0487 5.48382,-0.43871 1.65732,-0.48744 3.11967,-1.19424 4.38706,-2.12041 1.26735,-0.92614 2.36411,-2.02291 3.29029,-3.29029 0.97488,-1.26736 1.80354,-2.60785 2.486,-4.02147 0.2437,-0.48743 0.48742,-0.87739 0.73118,-1.16988 0.29244,-0.29245 0.51179,-0.43869 0.65805,-0.4387 0.19496,-0.0487 0.31682,0.0731 0.36559,0.36558 0.0487,0.24375 -0.0488,0.65808 -0.29247,1.243 -1.07242,2.72974 -2.38853,5.11825 -3.94835,7.16553 -1.51112,1.99855 -3.14408,3.65588 -4.89888,4.97199 -1.75484,1.31612 -3.5584,2.29102 -5.4107,2.92471 -1.85233,0.58494 -3.63152,0.82866 -5.33759,0.73117 -1.65734,-0.0975 -3.21718,-0.51182 -4.67952,-1.24299 -1.41361,-0.77992 -2.58349,-1.90106 -3.50965,-3.36341 -0.92615,-1.41361 -1.4136,-3.09531 -1.46235,-5.04512 -0.0975,-1.99853 0.17061,-4.04583 0.80429,-6.14188 0.58495,-2.14476 1.46236,-4.26517 2.63224,-6.36123 1.16988,-2.09601 2.51036,-3.94832 4.02147,-5.55694 1.55983,-1.60855 3.21716,-2.9003 4.97199,-3.87523 1.80356,-0.97487 3.65587,-1.41357 5.55694,-1.31612 1.90104,0.0975 3.38776,0.53623 4.46017,1.31612 1.12112,0.77995 1.90104,1.75485 2.33977,2.92471 0.48742,1.1699 0.6824,2.48602 0.58494,3.94835 -0.0975,1.41363 -0.43873,2.80286 -1.02365,4.1677 -0.53622,1.36488 -1.26739,2.65662 -2.19353,3.87523 -0.87743,1.1699 -1.8767,2.09605 -2.99782,2.77847 m -2.70535,-15.06223 c -1.31613,-0.19495 -2.55913,-0.0243 -3.729,0.51183 -1.12114,0.53622 -2.14479,1.31614 -3.07094,2.33976 -0.92616,1.02367 -1.70608,2.2423 -2.33976,3.65588 -0.63369,1.36488 -1.09677,2.80286 -1.38923,4.31394 0.4387,0.43872 1.09675,0.85306 1.97417,1.243 0.92615,0.38998 2.19352,0.46309 3.80212,0.21935 0.8774,-0.0975 1.73043,-0.46306 2.55911,-1.09676 0.82866,-0.63367 1.55983,-1.36485 2.19353,-2.19353 0.63367,-0.87739 1.14549,-1.80355 1.53547,-2.77847 0.43869,-0.97488 0.68241,-1.90103 0.73118,-2.77847 0.0975,-0.87738 -0.0488,-1.63293 -0.43871,-2.26664 -0.34123,-0.63366 -0.95054,-1.02362 -1.82794,-1.16989" />
        </g>
        <g
           id="text4648"
           style="font-size:73.11759949px;font-style:normal;font-variant:normal;font-weight:normal;font-stretch:normal;line-height:125%;letter-spacing:0px;word-spacing:0px;fill:#1a1a1a;fill-opacity:1;stroke:none;font-family:Brannboll Ny Personal Use Only;-inkscape-font-specification:Brannboll Ny Personal Use Only">
          <path
             id="path3079"
             style=""
             d="m 264.87705,434.90119 c -1.75482,-0.0487 -3.09531,-0.85304 -4.02146,-2.41288 -0.92616,-1.55984 -1.46236,-3.50964 -1.60859,-5.84941 -0.19498,-2.33975 0,-4.87449 0.58494,-7.60423 0.58494,-2.77845 1.53547,-5.36194 2.85159,-7.75047 1.36485,-2.43722 3.04656,-4.50889 5.04511,-6.21499 2.04728,-1.75479 4.43579,-2.77844 7.16553,-3.07094 1.94978,-0.24369 3.72897,3e-5 5.33758,0.73118 1.65731,0.68246 2.75407,1.60861 3.29029,2.77846 0.29245,0.58497 0.46306,1.29178 0.51183,2.12041 0.0487,0.8287 -0.0975,1.60862 -0.43871,2.33977 -0.34124,0.7312 -0.92618,1.31614 -1.75482,1.75482 -0.82869,0.43873 -1.9742,0.56059 -3.43653,0.36559 0.0975,-1.16986 -0.195,-2.12039 -0.87741,-2.85159 -0.68245,-0.73115 -1.70609,-1.04799 -3.07094,-0.95053 -1.41362,0.14626 -2.75411,0.82869 -4.02147,2.0473 -1.21863,1.21865 -2.29102,2.70537 -3.21717,4.46017 -0.87742,1.75484 -1.6086,3.63152 -2.19353,5.63005 -0.58495,1.99856 -0.95053,3.85088 -1.09676,5.55694 -0.14624,1.65734 -0.0731,3.04657 0.21935,4.16771 0.29246,1.12114 0.8774,1.6817 1.75482,1.6817 1.02364,0 2.07166,-0.65805 3.14406,-1.97418 1.07238,-1.31611 2.07165,-2.87595 2.99782,-4.67952 0.92614,-1.8523 1.75481,-3.72899 2.486,-5.63006 0.73116,-1.94978 1.3161,-3.50962 1.75482,-4.67952 0.29245,-0.82865 0.87739,-1.34047 1.75482,-1.53547 0.87739,-0.19496 1.7548,-0.14622 2.63224,0.14623 0.87739,0.29249 1.58419,0.77994 2.12041,1.46235 0.58491,0.68245 0.70678,1.48675 0.36558,2.41289 -0.48747,1.31613 -1.09678,2.80285 -1.82794,4.46017 -0.68245,1.65734 -1.26739,3.21718 -1.75482,4.67953 -0.43872,1.46235 -0.65808,2.70535 -0.65806,3.72899 0.0487,1.02365 0.58492,1.53548 1.60859,1.53547 0.97488,10e-6 1.99853,-0.53619 3.07094,-1.60858 1.07237,-1.12114 2.07164,-2.38851 2.99782,-3.80212 0.97487,-1.46234 1.80354,-2.87595 2.486,-4.24082 0.6824,-1.36485 1.14548,-2.31538 1.38923,-2.85159 0.19495,-0.48743 0.43868,-0.87739 0.73118,-1.16988 0.29244,-0.29245 0.51179,-0.43869 0.65806,-0.4387 0.19495,10e-6 0.31681,0.14625 0.36559,0.4387 0.0487,0.24374 -0.0488,0.6337 -0.29247,1.16988 -0.19502,0.38998 -0.48749,1.04804 -0.87742,1.97418 -0.34124,0.92617 -0.77995,1.97419 -1.31611,3.14405 -0.53623,1.1699 -1.16991,2.38852 -1.90106,3.65588 -0.7312,1.21864 -1.5355,2.33977 -2.41288,3.36341 -0.87744,1.02365 -1.82796,1.87669 -2.85159,2.55912 -1.02366,0.63369 -2.12043,0.95053 -3.29029,0.95053 -1.21864,0 -2.19354,-0.29247 -2.9247,-0.87741 -0.68245,-0.58494 -1.19427,-1.31612 -1.53547,-2.19353 -0.34123,-0.87741 -0.53621,-1.82794 -0.58494,-2.85159 -2e-5,-1.07238 0.0731,-2.09603 0.21935,-3.07094 -0.48747,1.26738 -1.04803,2.46164 -1.68171,3.58277 -0.63369,1.12114 -1.36487,2.09604 -2.19352,2.9247 -0.77993,0.77992 -1.65734,1.41361 -2.63224,1.90106 -0.92616,0.4387 -1.94981,0.63368 -3.07094,0.58494" />
          <path
             id="path3081"
             style=""
             d="m 301.64949,404.26491 c -0.38997,1.65737 -0.87742,3.55842 -1.46235,5.70318 -0.58495,2.09606 -1.21863,4.26521 -1.90105,6.50746 1.80355,-3.07091 3.70461,-5.82501 5.70317,-8.26228 1.60857,-1.94978 3.24153,-3.4365 4.89888,-4.46018 1.70605,-1.02361 3.2659,-1.60855 4.67952,-1.75482 1.41359,-0.1462 2.58347,0.12189 3.50965,0.80429 0.97487,0.63372 1.53544,1.65737 1.6817,3.07094 0.14621,1.16991 -0.0244,2.60789 -0.51182,4.31394 -0.48748,1.65736 -1.12116,3.41218 -1.90106,5.26447 -0.7312,1.80358 -1.51112,3.63152 -2.33976,5.48382 -0.82869,1.80358 -1.53549,3.46091 -2.12041,4.97199 -0.58496,1.46236 -0.95055,2.70536 -1.09677,3.729 -0.0975,0.97491 0.17059,1.55985 0.8043,1.75482 0.68241,0.19499 1.4867,10e-6 2.41288,-0.58494 0.92613,-0.58493 1.90103,-1.43797 2.9247,-2.55911 1.02362,-1.12113 2.02289,-2.46162 2.99782,-4.02147 1.02362,-1.55983 1.9254,-3.21716 2.70536,-4.972 0.38992,-0.92614 0.75551,-1.60857 1.09676,-2.04729 0.34118,-0.43869 0.60928,-0.65804 0.80429,-0.65806 0.19495,2e-5 0.26807,0.21937 0.21936,0.65806 -0.0488,0.43872 -0.26814,1.12115 -0.65806,2.04729 -0.39,0.97492 -1.02368,2.33978 -1.90106,4.09459 -0.87744,1.75483 -1.94983,3.50965 -3.21717,5.26447 -1.21866,1.70608 -2.63226,3.21717 -4.24082,4.53329 -1.55987,1.26737 -3.2172,1.90105 -4.972,1.90105 -1.26739,0 -2.29104,-0.38996 -3.07094,-1.16988 -0.73119,-0.77992 -1.24301,-1.85231 -1.53547,-3.21717 -0.24374,-1.4136 -0.24374,-3.07093 0,-4.972 0.29246,-1.90104 0.80428,-3.99708 1.53547,-6.28811 0.29245,-0.82865 0.6093,-1.73043 0.95053,-2.70535 0.38994,-0.97489 0.75553,-1.90104 1.09676,-2.77847 0.3412,-0.92614 0.65804,-1.7548 0.95053,-2.486 0.29245,-0.73115 0.48743,-1.26735 0.58494,-1.60859 -0.92617,3e-5 -2.12043,0.58497 -3.58276,1.75482 -1.46237,1.16991 -2.99784,2.75412 -4.60641,4.75265 -1.6086,1.94982 -3.16844,4.19209 -4.67953,6.72682 -1.46235,2.53475 -2.70535,5.14261 -3.72899,7.82358 l -0.36559,1.02365 c -0.5362,1.5111 -1.21863,2.43725 -2.04729,2.77847 -0.77993,0.34121 -1.46236,0.19498 -2.0473,-0.43871 -0.63368,-0.68243 -1.07239,-1.82794 -1.31611,-3.43653 -0.24373,-1.60858 -0.0244,-3.65587 0.65805,-6.14187 0.24373,-0.8774 0.65806,-2.04729 1.243,-3.50965 0.5362,-1.51108 1.16988,-3.19278 1.90106,-5.04511 0.77992,-1.8523 1.58421,-3.82647 2.41288,-5.92253 0.82866,-2.14476 1.60858,-4.33828 2.33977,-6.58058 0.3412,-0.97487 0.85303,-1.73042 1.53546,-2.26665 0.68243,-0.58491 1.34049,-0.87738 1.97418,-0.87741 0.63368,3e-5 1.1455,0.2925 1.53547,0.87741 0.38995,0.58497 0.43869,1.55988 0.14623,2.9247" />
          <path
             id="path3083"
             style=""
             d="m 327.71249,434.90119 c -1.75483,-0.0487 -3.09532,-0.85304 -4.02147,-2.41288 -0.92616,-1.55984 -1.46235,-3.50964 -1.60859,-5.84941 -0.19498,-2.33975 0,-4.87449 0.58494,-7.60423 0.58494,-2.77845 1.53547,-5.36194 2.85159,-7.75047 1.36486,-2.43722 3.04656,-4.50889 5.04511,-6.21499 2.04729,-1.75479 4.43579,-2.77844 7.16553,-3.07094 1.94978,-0.24369 3.72898,3e-5 5.33758,0.73118 1.65731,0.68246 2.75408,1.60861 3.2903,2.77846 0.29244,0.58497 0.46305,1.29178 0.51182,2.12041 0.0487,0.8287 -0.0975,1.60862 -0.43871,2.33977 -0.34124,0.7312 -0.92618,1.31614 -1.75482,1.75482 -0.82869,0.43873 -1.97419,0.56059 -3.43653,0.36559 0.0975,-1.16986 -0.19499,-2.12039 -0.87741,-2.85159 -0.68245,-0.73115 -1.70609,-1.04799 -3.07094,-0.95053 -1.41362,0.14626 -2.7541,0.82869 -4.02146,2.0473 -1.21864,1.21865 -2.29103,2.70537 -3.21718,4.46017 -0.87742,1.75484 -1.60859,3.63152 -2.19353,5.63005 -0.58494,1.99856 -0.95053,3.85088 -1.09676,5.55694 -0.14624,1.65734 -0.0731,3.04657 0.21935,4.16771 0.29247,1.12114 0.87741,1.6817 1.75482,1.6817 1.02364,0 2.07166,-0.65805 3.14406,-1.97418 1.07238,-1.31611 2.07166,-2.87595 2.99782,-4.67952 0.92615,-1.8523 1.75481,-3.72899 2.486,-5.63006 0.73116,-1.94978 1.3161,-3.50962 1.75482,-4.67952 0.29246,-0.82865 0.8774,-1.34047 1.75483,-1.53547 0.87739,-0.19496 1.7548,-0.14622 2.63223,0.14623 0.87739,0.29249 1.58419,0.77994 2.12041,1.46235 0.58492,0.68245 0.70678,1.48675 0.36559,2.41289 -0.48748,1.31613 -1.09679,2.80285 -1.82794,4.46017 -0.68245,1.65734 -1.26739,3.21718 -1.75482,4.67953 -0.43873,1.46235 -0.65808,2.70535 -0.65806,3.72899 0.0487,1.02365 0.58492,1.53548 1.60858,1.53547 0.97488,10e-6 1.99853,-0.53619 3.07094,-1.60858 1.07237,-1.12114 2.07164,-2.38851 2.99783,-3.80212 0.97487,-1.46234 1.80353,-2.87595 2.48599,-4.24082 0.6824,-1.36485 1.14548,-2.31538 1.38924,-2.85159 0.19495,-0.48743 0.43867,-0.87739 0.73117,-1.16988 0.29244,-0.29245 0.5118,-0.43869 0.65806,-0.4387 0.19495,10e-6 0.31681,0.14625 0.36559,0.4387 0.0487,0.24374 -0.0488,0.6337 -0.29247,1.16988 -0.19501,0.38998 -0.48748,1.04804 -0.87741,1.97418 -0.34125,0.92617 -0.77995,1.97419 -1.31612,3.14405 -0.53622,1.1699 -1.16991,2.38852 -1.90106,3.65588 -0.7312,1.21864 -1.53549,2.33977 -2.41288,3.36341 -0.87743,1.02365 -1.82796,1.87669 -2.85158,2.55912 -1.02367,0.63369 -2.12043,0.95053 -3.29029,0.95053 -1.21865,0 -2.19355,-0.29247 -2.92471,-0.87741 -0.68245,-0.58494 -1.19427,-1.31612 -1.53547,-2.19353 -0.34123,-0.87741 -0.53621,-1.82794 -0.58494,-2.85159 -1e-5,-1.07238 0.0731,-2.09603 0.21935,-3.07094 -0.48746,1.26738 -1.04803,2.46164 -1.6817,3.58277 -0.6337,1.12114 -1.36487,2.09604 -2.19353,2.9247 -0.77993,0.77992 -1.65734,1.41361 -2.63223,1.90106 -0.92617,0.4387 -1.94981,0.63368 -3.07094,0.58494" />
          <path
             id="path3085"
             style=""
             d="m 364.48493,404.26491 c -0.38997,1.65737 -0.87742,3.55842 -1.46235,5.70318 -0.58495,2.09606 -1.21864,4.26521 -1.90106,6.50746 1.80356,-3.07091 3.70461,-5.82501 5.70317,-8.26228 1.60858,-1.94978 3.24153,-3.4365 4.89888,-4.46018 1.70606,-1.02361 3.2659,-1.60855 4.67953,-1.75482 1.41358,-0.1462 2.58346,0.12189 3.50964,0.80429 0.97488,0.63372 1.53545,1.65737 1.68171,3.07094 0.14621,1.16991 -0.0244,2.60789 -0.51182,4.31394 -0.48748,1.65736 -1.12117,3.41218 -1.90106,5.26447 -0.7312,1.80358 -1.51112,3.63152 -2.33976,5.48382 -0.82869,1.80358 -1.5355,3.46091 -2.12042,4.97199 -0.58496,1.46236 -0.95054,2.70536 -1.09676,3.729 -0.0975,0.97491 0.17059,1.55985 0.80429,1.75482 0.68241,0.19499 1.48671,10e-6 2.41289,-0.58494 0.92613,-0.58493 1.90103,-1.43797 2.9247,-2.55911 1.02362,-1.12113 2.02289,-2.46162 2.99782,-4.02147 1.02362,-1.55983 1.9254,-3.21716 2.70535,-4.972 0.38993,-0.92614 0.75552,-1.60857 1.09677,-2.04729 0.34118,-0.43869 0.60928,-0.65804 0.80429,-0.65806 0.19495,2e-5 0.26806,0.21937 0.21935,0.65806 -0.0488,0.43872 -0.26813,1.12115 -0.65806,2.04729 -0.38999,0.97492 -1.02368,2.33978 -1.90105,4.09459 -0.87745,1.75483 -1.94984,3.50965 -3.21718,5.26447 -1.21865,1.70608 -2.63226,3.21717 -4.24082,4.53329 -1.55986,1.26737 -3.21719,1.90105 -4.972,1.90105 -1.26739,0 -2.29103,-0.38996 -3.07093,-1.16988 -0.7312,-0.77992 -1.24302,-1.85231 -1.53547,-3.21717 -0.24374,-1.4136 -0.24374,-3.07093 0,-4.972 0.29245,-1.90104 0.80427,-3.99708 1.53547,-6.28811 0.29245,-0.82865 0.60929,-1.73043 0.95052,-2.70535 0.38995,-0.97489 0.75553,-1.90104 1.09677,-2.77847 0.34119,-0.92614 0.65804,-1.7548 0.95053,-2.486 0.29245,-0.73115 0.48743,-1.26735 0.58494,-1.60859 -0.92618,3e-5 -2.12043,0.58497 -3.58276,1.75482 -1.46237,1.16991 -2.99784,2.75412 -4.60641,4.75265 -1.6086,1.94982 -3.16844,4.19209 -4.67953,6.72682 -1.46236,2.53475 -2.70536,5.14261 -3.729,7.82358 l -0.36559,1.02365 c -0.53619,1.5111 -1.21862,2.43725 -2.04729,2.77847 -0.77992,0.34121 -1.46235,0.19498 -2.04729,-0.43871 -0.63369,-0.68243 -1.07239,-1.82794 -1.31612,-3.43653 -0.24372,-1.60858 -0.0244,-3.65587 0.65806,-6.14187 0.24373,-0.8774 0.65806,-2.04729 1.243,-3.50965 0.5362,-1.51108 1.16988,-3.19278 1.90106,-5.04511 0.77992,-1.8523 1.58421,-3.82647 2.41288,-5.92253 0.82866,-2.14476 1.60858,-4.33828 2.33976,-6.58058 0.34121,-0.97487 0.85303,-1.73042 1.53547,-2.26665 0.68242,-0.58491 1.34048,-0.87738 1.97418,-0.87741 0.63367,3e-5 1.14549,0.2925 1.53547,0.87741 0.38994,0.58497 0.43869,1.55988 0.14623,2.9247" />
          <path
             id="path3087"
             style=""
             d="m 403.85533,421.15508 c -1.41363,0.82868 -2.80286,1.31613 -4.16771,1.46235 -1.36487,0.0975 -2.65662,10e-6 -3.87523,-0.29247 -1.16989,-0.3412 -2.24228,-0.80428 -3.21718,-1.38923 -0.9749,-0.63367 -1.75482,-1.29173 -2.33976,-1.97418 -0.0975,1.26739 -0.0487,2.48601 0.14624,3.65588 0.19497,1.1699 0.56056,2.21791 1.09676,3.14406 0.53619,0.92616 1.24299,1.68171 2.12041,2.26664 0.8774,0.58495 1.94979,0.95054 3.21718,1.09677 2.04727,0.19498 3.87521,0.0487 5.48382,-0.43871 1.65731,-0.48744 3.11966,-1.19424 4.38705,-2.12041 1.26735,-0.92614 2.36411,-2.02291 3.29029,-3.29029 0.97488,-1.26736 1.80354,-2.60785 2.486,-4.02147 0.2437,-0.48743 0.48743,-0.87739 0.73118,-1.16988 0.29244,-0.29245 0.51179,-0.43869 0.65806,-0.4387 0.19495,-0.0487 0.31681,0.0731 0.36558,0.36558 0.0487,0.24375 -0.0488,0.65808 -0.29247,1.243 -1.07242,2.72974 -2.38853,5.11825 -3.94835,7.16553 -1.51112,1.99855 -3.14407,3.65588 -4.89888,4.97199 -1.75484,1.31612 -3.5584,2.29102 -5.4107,2.92471 -1.85232,0.58494 -3.63152,0.82866 -5.33758,0.73117 -1.65734,-0.0975 -3.21718,-0.51182 -4.67953,-1.24299 -1.41361,-0.77992 -2.58349,-1.90106 -3.50964,-3.36341 -0.92616,-1.41361 -1.41361,-3.09531 -1.46236,-5.04512 -0.0975,-1.99853 0.17061,-4.04583 0.8043,-6.14188 0.58494,-2.14476 1.46235,-4.26517 2.63223,-6.36123 1.16988,-2.09601 2.51037,-3.94832 4.02147,-5.55694 1.55983,-1.60855 3.21716,-2.9003 4.972,-3.87523 1.80355,-0.97487 3.65586,-1.41357 5.55693,-1.31612 1.90104,0.0975 3.38777,0.53623 4.46018,1.31612 1.12111,0.77995 1.90103,1.75485 2.33976,2.92471 0.48743,1.1699 0.68241,2.48602 0.58494,3.94835 -0.0975,1.41363 -0.43873,2.80286 -1.02365,4.1677 -0.53621,1.36488 -1.26739,2.65662 -2.19352,3.87523 -0.87743,1.1699 -1.87671,2.09605 -2.99782,2.77847 m -2.70536,-15.06223 c -1.31613,-0.19495 -2.55913,-0.0243 -3.72899,0.51183 -1.12115,0.53622 -2.1448,1.31614 -3.07094,2.33976 -0.92617,1.02367 -1.70609,2.2423 -2.33977,3.65588 -0.63369,1.36488 -1.09677,2.80286 -1.38923,4.31394 0.4387,0.43872 1.09676,0.85306 1.97417,1.243 0.92615,0.38998 2.19352,0.46309 3.80212,0.21935 0.8774,-0.0975 1.73044,-0.46306 2.55912,-1.09676 0.82865,-0.63367 1.55982,-1.36485 2.19352,-2.19353 0.63367,-0.87739 1.1455,-1.80355 1.53547,-2.77847 0.43869,-0.97488 0.68242,-1.90103 0.73118,-2.77847 0.0975,-0.87738 -0.0488,-1.63293 -0.43871,-2.26664 -0.34123,-0.63366 -0.95054,-1.02362 -1.82794,-1.16989" />
        </g>
      </g>
    </g>
  </g>
</svg>
