<?xml version="1.0"?>
<!--Icons from directory ""-->
<svg xmlns="http://www.w3.org/2000/svg" width="24" height="360" viewBox="0 0 24 360"><svg height="24" width="24" viewBox="0 0 24 24" fill="#1a1a1a" id="ic_add_black_24px" y="0"><path d="m19 13h-6v6h-2v-6h-6v-2h6v-6h2v6h6v2z"/><path d="m0 0h24v24h-24z" fill="none"/></svg><svg height="24" width="24" viewBox="0 0 24 24" fill="#ffcc00" id="ic_add_yellow_24px" y="24"><path d="m19 13h-6v6h-2v-6h-6v-2h6v-6h2v6h6v2z"/><path d="m0 0h24v24h-24z" fill="none"/></svg><svg height="24" width="24" viewBox="0 0 24 24" fill="#1a1a1a" id="ic_chevron_right_black_24px" y="48"><path d="m10 6l-1.41 1.41 4.58 4.59-4.58 4.59 1.41 1.41 6-6z"/><path d="m0 0h24v24h-24z" fill="none"/></svg><svg height="24" width="24" viewBox="0 0 24 24" fill="#1a1a1a" id="ic_clear_black_24px" y="72"><path d="m19 6.41l-1.41-1.41-5.59 5.59-5.59-5.59-1.41 1.41 5.59 5.59-5.59 5.59 1.41 1.41 5.59-5.59 5.59 5.59 1.41-1.41-5.59-5.59z"/><path d="m0 0h24v24h-24z" fill="none"/></svg><svg xmlns:rdf="http://www.w3.org/1999/02/22-rdf-syntax-ns#" xmlns:cc="http://creativecommons.org/ns#" xmlns:dc="http://purl.org/dc/elements/1.1/" id="ic_clear_yellow_24px" height="24" width="24" version="1.1" viewBox="0 0 24 24" y="96"><path id="ic_clear_yellow_24px-path4" fill="#fc0" d="m19 6.41-1.41-1.41-5.59 5.59-5.59-5.59-1.41 1.41 5.59 5.59-5.59 5.59 1.41 1.41 5.59-5.59 5.59 5.59 1.41-1.41-5.59-5.59z"/><path id="ic_clear_yellow_24px-path6" fill="none" d="m0 0h24v24h-24z"/></svg><svg height="24" width="24" viewBox="0 0 24 24" fill="#1a1a1a" id="ic_content_copy_black_24px" y="120"><path d="m0 0h24v24h-24z" fill="none"/><path d="m16 1h-12c-1.1 0-2 0.9-2 2v14h2v-14h12v-2zm3 4h-11c-1.1 0-2 0.9-2 2v14c0 1.1 0.9 2 2 2h11c1.1 0 2-0.9 2-2v-14c0-1.1-0.9-2-2-2zm0 16h-11v-14h11v14z"/></svg><svg height="24" width="24" viewBox="0 0 24 24" fill="#1a1a1a" id="ic_exit_to_app_black_24px" y="144"><path d="m0 0h24v24h-24z" fill="none"/><path d="m10.09 15.59l1.41 1.41 5-5-5-5-1.41 1.41 2.58 2.59h-9.67v2h9.67l-2.58 2.59zm8.91-12.59h-14c-1.11 0-2 0.9-2 2v4h2v-4h14v14h-14v-4h-2v4c0 1.1 0.89 2 2 2h14c1.1 0 2-0.9 2-2v-14c0-1.1-0.9-2-2-2z"/></svg><svg height="24" width="24" viewBox="0 0 24 24" fill="#1a1a1a" id="ic_mode_edit_black_24px" y="168"><path d="m3 17.25v3.75h3.75l11.06-11.06-3.75-3.75-11.06 11.06zm17.71-10.21c0.39-0.39 0.39-1.02 0-1.41l-2.34-2.34c-0.39-0.39-1.02-0.39-1.41 0l-1.83 1.83 3.75 3.75 1.83-1.83z"/><path d="m0 0h24v24h-24z" fill="none"/></svg><svg height="24" width="24" viewBox="0 0 24 24" fill="#1a1a1a" id="ic_pause_black_24px" y="192"><path d="m6 19h4v-14h-4v14zm8-14v14h4v-14h-4z"/><path d="m0 0h24v24h-24z" fill="none"/></svg><svg height="24" width="24" viewBox="0 0 24 24" fill="#1a1a1a" id="ic_play_arrow_black_24px" y="216"><path d="m8 5v14l11-7z"/><path d="m0 0h24v24h-24z" fill="none"/></svg><svg height="24" width="24" viewBox="0 0 24 24" fill="#1a1a1a" id="ic_shuffle_black_24px" y="240"><path d="m0 0h24v24h-24z" fill="none"/><path d="m10.59 9.17l-5.18-5.17-1.41 1.41 5.17 5.17 1.42-1.41zm3.91-5.17l2.04 2.04-12.54 12.55 1.41 1.41 12.55-12.54 2.04 2.04v-5.5h-5.5zm0.33 9.41l-1.41 1.41 3.13 3.13-2.05 2.05h5.5v-5.5l-2.04 2.04-3.13-3.13z"/></svg><svg height="24" width="24" viewBox="0 0 24 24" fill="#1a1a1a" id="ic_skip_next_black_24px" y="264"><path d="m6 18l8.5-6-8.5-6v12zm10-12v12h2v-12h-2z"/><path d="m0 0h24v24h-24z" fill="none"/></svg><svg height="24" width="24" viewBox="0 0 24 24" fill="#1a1a1a" id="ic_skip_previous_black_24px" y="288"><path d="m6 6h2v12h-2zm3.5 6l8.5 6v-12z"/><path d="m0 0h24v24h-24z" fill="none"/></svg><svg height="24" width="24" viewBox="0 0 24 24" fill="#1a1a1a" id="ic_volume_off_black_24px" y="312"><path d="m16.5 12c0-1.77-1.02-3.29-2.5-4.03v2.21l2.45 2.45c0.03-0.2 0.05-0.41 0.05-0.63zm2.5 0c0 0.94-0.2 1.82-0.54 2.64l1.51 1.51c0.66-1.24 1.03-2.65 1.03-4.15 0-4.28-2.99-7.86-7-8.77v2.06c2.89 0.86 5 3.54 5 6.71zm-14.73-9l-1.27 1.27 4.73 4.73h-4.73v6h4l5 5v-6.73l4.25 4.25c-0.67 0.52-1.42 0.93-2.25 1.18v2.06c1.38-0.31 2.63-0.95 3.69-1.81l2.04 2.05 1.27-1.27-9-9-7.73-7.73zm7.73 1l-2.09 2.09 2.09 2.09v-4.18z"/><path d="m0 0h24v24h-24z" fill="none"/></svg><svg height="24" width="24" viewBox="0 0 24 24" fill="#1a1a1a" id="ic_volume_up_black_24px" y="336"><path d="m3 9v6h4l5 5v-16l-5 5h-4zm13.5 3c0-1.77-1.02-3.29-2.5-4.03v8.05c1.48-0.73 2.5-2.25 2.5-4.02zm-2.5-8.77v2.06c2.89 0.86 5 3.54 5 6.71s-2.11 5.85-5 6.71v2.06c4.01-0.91 7-4.49 7-8.77s-2.99-7.86-7-8.77z"/><path d="m0 0h24v24h-24z" fill="none"/></svg></svg>
