<?xml version="1.0" encoding="UTF-8" standalone="no"?>
<!-- Created with Inkscape (http://www.inkscape.org/) -->

<svg
   xmlns:dc="http://purl.org/dc/elements/1.1/"
   xmlns:cc="http://creativecommons.org/ns#"
   xmlns:rdf="http://www.w3.org/1999/02/22-rdf-syntax-ns#"
   xmlns:svg="http://www.w3.org/2000/svg"
   xmlns="http://www.w3.org/2000/svg"
   version="1.1"
   width="35"
   height="15"
   id="svg4141">
  <defs
     id="defs4143" />
  <metadata
     id="metadata4146">
    <rdf:RDF>
      <cc:Work
         rdf:about="">
        <dc:format>image/svg+xml</dc:format>
        <dc:type
           rdf:resource="http://purl.org/dc/dcmitype/StillImage" />
        <dc:title></dc:title>
      </cc:Work>
    </rdf:RDF>
  </metadata>
  <g
     transform="translate(0,-49)"
     id="layer1">
    <path
       d="m 4.336136,63.592253 c -0.219232,-0.0363 -0.3456577,-0.0818 -0.4122747,-0.14841 l -0.09608,-0.0961 -0.01315,-3.37291 c -0.0089,-2.279081 0.0014,-3.424021 0.03277,-3.530481 0.03129,-0.10746 0.08375,-0.1732 0.1650197,-0.20676 0.175673,-0.0726 0.600171,-0.13421 0.926118,-0.1345 0.497564,-4.4e-4 0.451544,-0.38607 0.451544,3.783671 l 0,3.60122 -0.102453,0.083 c -0.12033,0.0974 -0.447212,0.10474 -0.951485,0.0212 z m 2.334147,-0.0251 c -0.0853,-0.0853 -0.08679,-0.14466 -0.08679,-3.44176 0,-3.601541 -0.0056,-3.506231 0.217157,-3.522661 0.0884,-0.006 0.121406,-0.0734 0.286215,-0.58024 0.200765,-0.61741 0.511881,-1.25469 0.74612,-1.52835 0.16201,-0.18927 0.244091,-0.21211 0.311263,-0.0866 0.03017,0.0563 0.04494,1.56324 0.04494,4.57837 0,4.436571 -0.0014,4.495551 -0.0868,4.581231 -0.07881,0.0788 -0.144654,0.0868 -0.716043,0.0868 -0.571395,0 -0.637239,-0.008 -0.71605,-0.0868 z m 2.830452,0.0193 -0.09645,-0.0676 0,-5.270271 c 0,-5.10913 0.0028,-5.27277 0.08197,-5.35223 0.110485,-0.11049 0.594131,-0.37792 0.966091,-0.5342 0.285307,-0.11987 0.309737,-0.12337 0.408829,-0.0584 l 0.105393,0.0691 0,5.57304 0,5.573041 -0.09645,0.0676 c -0.07578,0.0531 -0.222523,0.0676 -0.684699,0.0676 -0.46217,0 -0.608913,-0.0145 -0.684693,-0.0676 z m 2.767744,-0.0193 c -0.08591,-0.0859 -0.08679,-0.14466 -0.08679,-5.773761 l 0,-5.68697 0.106518,-0.10652 c 0.09828,-0.0983 0.13772,-0.10632 0.509919,-0.10393 0.527296,0.004 0.815444,0.0527 0.887954,0.15181 0.04754,0.065 0.05788,1.09217 0.05788,5.75587 0,5.618841 -7.03e-4,5.677591 -0.08679,5.763501 -0.07853,0.0785 -0.144655,0.0868 -0.694349,0.0868 -0.549693,0 -0.615825,-0.008 -0.694355,-0.0868 z m 2.083052,0 c -0.08589,-0.0859 -0.08679,-0.14466 -0.08679,-5.666151 0,-3.763 0.01463,-5.60668 0.04494,-5.6633 0.02665,-0.0498 0.09062,-0.0839 0.157361,-0.0839 0.130583,0 0.820951,0.26505 1.085654,0.41681 0.09972,0.0572 0.197875,0.10396 0.218107,0.10396 0.02025,0 0.139092,-0.1367 0.264126,-0.30378 0.175906,-0.23507 0.251974,-0.30378 0.336277,-0.30378 0.07733,0 0.121364,0.0326 0.15175,0.11259 0.02757,0.0725 0.03875,2.10693 0.0315,5.71053 l -0.01132,5.597941 -0.102454,0.083 c -0.09389,0.076 -0.181763,0.083 -1.052369,0.083 -0.892061,0 -0.955212,-0.006 -1.036723,-0.0868 z m 2.814762,0.004 -0.102453,-0.083 0,-6.105961 0,-6.10596 0.21049,-0.19057 c 0.715017,-0.64734 1.947237,-1.24164 3.090654,-1.49061 2.330343,-0.5074 4.82837,0.22467 6.533794,1.9148 1.075823,1.06618 1.738448,2.30039 2.017483,3.75776 0.04226,0.22079 0.09231,0.40143 0.11118,0.40143 0.01885,0 0.205498,-0.0506 0.414709,-0.11231 1.461558,-0.43152 3.187088,0.11737 4.140443,1.31707 0.326003,0.41023 0.533997,0.787 0.694102,1.25728 0.500854,1.471221 0.19208,3.132221 -0.777105,4.180281 -0.669228,0.72368 -1.657506,1.16395 -2.908467,1.29568 -0.299576,0.0316 -2.565137,0.0471 -6.884453,0.0471 -6.274085,0 -6.440539,-0.002 -6.540377,-0.083 z m -15.0219627,-1.143 c -0.455601,-0.48594 -0.835493,-1.23605 -0.960971,-1.89752 -0.210483,-1.109581 0.133199,-2.287681 0.927666,-3.179921 0.199668,-0.22424 0.356791,-0.26837 0.435025,-0.12219 0.02954,0.0551 0.04494,0.96416 0.04494,2.650071 0,1.6859 -0.0154,2.59491 -0.04494,2.65005 -0.07211,0.13474 -0.21459,0.0991 -0.40172,-0.10049 z"
       id="path3269"
       style="fill:#1a1a1a;fill-opacity:1" />
  </g>
</svg>
