<?xml version="1.0" encoding="UTF-8" standalone="no"?>
<!-- Created with Inkscape (http://www.inkscape.org/) -->

<svg
   xmlns:dc="http://purl.org/dc/elements/1.1/"
   xmlns:cc="http://creativecommons.org/ns#"
   xmlns:rdf="http://www.w3.org/1999/02/22-rdf-syntax-ns#"
   xmlns:svg="http://www.w3.org/2000/svg"
   xmlns="http://www.w3.org/2000/svg"
   version="1.1"
   width="35"
   height="15"
   id="svg4141">
  <defs
     id="defs4143" />
  <metadata
     id="metadata4146">
    <rdf:RDF>
      <cc:Work
         rdf:about="">
        <dc:format>image/svg+xml</dc:format>
        <dc:type
           rdf:resource="http://purl.org/dc/dcmitype/StillImage" />
        <dc:title></dc:title>
      </cc:Work>
    </rdf:RDF>
  </metadata>
  <g
     transform="translate(0,-49)"
     id="layer1">
    <path
       d="m 18.09766,63.654174 c -3.156692,-0.18488 -3.577793,-0.70645 -3.852531,-4.77167 -0.144977,-2.14522 0.0025,-5.59234 0.284677,-6.63904 0.227638,-0.84539 0.743559,-1.53007 1.401733,-1.86024 0.563216,-0.28254 0.876654,-0.29308 8.717151,-0.29308 7.655271,0 8.165374,0.0161 8.68534,0.27451 1.293136,0.6426 1.581198,1.60069 1.679919,5.58741 0.135113,5.45651 -0.335056,7.09896 -2.159056,7.54229 -0.816418,0.19844 -12.025374,0.31983 -14.757233,0.15982 z m 4.01249,-2.63872 c 0.40929,-0.24956 0.487425,-0.25745 0.646886,-0.0653 0.114679,0.13818 0.374568,0.20234 0.7068,0.17449 l 0.525431,-0.0441 0,-3.29713 0,-3.29713 -0.586158,0 -0.586159,0 -0.04028,2.48368 c -0.03328,2.05097 -0.08192,2.52967 -0.279156,2.74762 -0.202729,0.22401 -0.573081,0.35193 -0.657998,0.22728 -0.01374,-0.0202 -0.06319,-1.25657 -0.109908,-2.74761 l -0.08494,-2.71097 -0.586158,0 -0.586159,0 0,3.12711 c 0,3.10968 0.0019,3.12868 0.345947,3.40704 0.435951,0.35274 0.706863,0.35169 1.291881,-0.005 z m 6.125705,-0.065 c 0.479182,-0.47919 0.550756,-1.01337 0.492745,-3.67748 l -0.05011,-2.29954 -0.411156,-0.35344 c -0.468447,-0.4027 -0.942455,-0.45105 -1.355942,-0.1383 -0.156448,0.11833 -0.331344,0.21724 -0.388655,0.2198 -0.05729,0.003 -0.123251,-0.57233 -0.14654,-1.27755 l -0.04235,-1.28222 -0.586159,0 -0.586159,0 -0.03876,4.50608 -0.03876,4.50608 0.558969,0 c 0.30743,0 0.626836,-0.0679 0.709794,-0.15082 0.103416,-0.10342 0.285383,-0.0807 0.578828,0.0724 0.594895,0.31023 0.898039,0.28118 1.304191,-0.12497 z m -1.652848,-1.14473 c -0.279326,-0.27933 -0.24093,-3.83735 0.04393,-4.07379 0.175368,-0.14554 0.264256,-0.14554 0.439619,0 0.174234,0.1446 0.219809,0.56761 0.219809,2.04018 0,1.72884 -0.09563,2.20946 -0.439619,2.20946 -0.04834,0 -0.167055,-0.0791 -0.263771,-0.17585 z m 5.733754,1.29489 c 0.620617,-0.25931 0.990829,-0.8395 1.024259,-1.60521 l 0.02679,-0.61287 -0.659428,0 c -0.641983,0 -0.661364,0.0136 -0.732699,0.51288 -0.05534,0.38715 -0.151664,0.52405 -0.393067,0.55842 -0.425608,0.0606 -0.661168,-0.4021 -0.604222,-1.18681 l 0.04481,-0.61719 1.134425,-0.0428 c 1.07896,-0.0407 1.139026,-0.0611 1.228362,-0.41702 0.132837,-0.52928 -0.04746,-2.03419 -0.302925,-2.52817 -0.246048,-0.47581 -1.022613,-0.89532 -1.65736,-0.89532 -0.523144,0 -1.356025,0.53387 -1.607159,1.03017 -0.283909,0.56108 -0.253366,4.42545 0.03946,4.9917 0.454689,0.87927 1.484293,1.21938 2.45881,0.8122 z m -1.262459,-4.28733 c -0.183424,-0.18342 -0.111969,-0.89266 0.108351,-1.07551 0.41645,-0.34562 0.739732,-0.12315 0.739732,0.50906 0,0.5163 -0.04317,0.58918 -0.371833,0.62751 -0.204506,0.0238 -0.418819,-0.004 -0.47625,-0.0611 z m -12.216922,1.8993 c 0.05294,-1.34272 0.09628,-3.05017 0.09628,-3.79434 0,-1.47362 0.03366,-1.53094 0.899647,-1.53094 0.422387,0 0.434646,-0.0195 0.390999,-0.62279 l -0.04507,-0.62279 -2.051549,0 -2.051549,0 -0.04507,0.62279 c -0.04368,0.60326 -0.03139,0.62279 0.390993,0.62279 0.941761,0 0.899653,-0.18135 0.899653,3.87455 0,2.03315 0.04393,3.74061 0.09769,3.79434 0.0537,0.0537 0.373087,0.0977 0.70968,0.0977 l 0.611994,0 0.09628,-2.4413 z m -12.9319922,2.39508 c -0.274536,-0.0955 -0.637223,-0.35979 -0.805968,-0.58734 -0.281079,-0.37905 -0.3068,-0.60852 -0.3068,-2.73687 0,-2.65209 0.117717,-2.98451 1.183063,-3.34092 0.488075,-0.16329 0.65832,-0.15619 1.198077,0.0499 0.9627558,0.36769 1.0625298,0.68186 1.0625298,3.34574 0,2.21519 -0.0086,2.27759 -0.372785,2.71042 -0.3371358,0.40066 -0.5491038,0.51708 -1.2391458,0.68056 -0.120893,0.0286 -0.444428,-0.026 -0.718971,-0.12153 z m 1.15859,-3.32421 c 0,-1.92877 -0.01708,-2.05039 -0.310172,-2.20724 -0.248015,-0.13273 -0.358143,-0.11798 -0.549527,0.0736 -0.196956,0.19718 -0.239348,0.57814 -0.239348,2.15105 0,1.7046 0.02994,1.93332 0.276692,2.11364 0.197598,0.14441 0.35467,0.16047 0.549521,0.0562 0.246041,-0.13168 0.272834,-0.34649 0.272834,-2.18726 z m 2.9307878,3.41378 c -0.54064,-0.18961 -0.586159,-0.47394 -0.586159,-3.66159 l 0,-3.12259 0.512889,0 c 0.2820874,0 0.5255954,0.0165 0.5411254,0.0366 0.01551,0.0202 0.06499,1.25579 0.109908,2.74587 0.07496,2.48705 0.103971,2.71351 0.353668,2.76136 0.531123,0.10176 0.605231,-0.21151 0.680499,-2.87639 l 0.07327,-2.5942 0.552294,-0.0456 0.5523,-0.0456 -0.03939,3.34278 -0.03939,3.34278 -0.415946,0.0476 c -0.231841,0.0265 -0.527366,-0.0532 -0.667691,-0.18021 -0.213822,-0.19351 -0.294649,-0.19813 -0.536562,-0.0307 -0.377632,0.26133 -0.820087,0.37489 -1.0907794,0.27995 z m -8.1085098,-0.14107 c -0.0537,-0.0538 -0.09769,-0.87936 -0.09769,-1.83473 0,-1.70857 -0.01336,-1.77816 -0.81366996,-4.24599 -0.447523,-1.37992 -0.777763,-2.60253 -0.733877,-2.7169 0.05408,-0.14094 0.257267,-0.19328 0.630499,-0.1624 0.60306896,0.0498 0.54974796,-0.0466 1.14336896,2.06843 0.140955,0.50221 0.308546,0.82771 0.409189,0.79474 0.09375,-0.0307 0.325438,-0.64427 0.514862,-1.36346 0.189423,-0.71919 0.420225,-1.35607 0.512889,-1.41529 0.275242,-0.17587 0.978034,-0.12676 1.054972,0.0737 0.0392,0.10222 -0.259379,1.27271 -0.663563,2.60107 -0.701897,2.30679 -0.734905,2.49195 -0.735352,4.12506 -2.97e-4,0.94041 -0.04046,1.81415 -0.08941,1.94164 -0.08937,0.2329 -0.933435,0.33288 -1.132212,0.1341 z"
       id="path3136"
       style="fill:#1a1a1a;fill-opacity:1" />
  </g>
</svg>
